<svg width="24" height="24" viewBox="0 0 24 24" fill="none" xmlns="http://www.w3.org/2000/svg">
<path d="M19.2482 10.702C19.6975 10.702 20.0617 10.3379 20.0617 9.88862C20.0617 9.43938 19.6975 9.0752 19.2482 9.0752C18.799 9.0752 18.4348 9.43938 18.4348 9.88862C18.4348 10.3379 18.799 10.702 19.2482 10.702Z" fill="#909AB7"/>
<path d="M20.0537 5.8255H19.1211C19.0872 5.8255 19.0566 5.80376 19.0454 5.77074L18.6668 4.66658C18.1192 3.07195 16.6188 2 14.9332 2H9.06604C7.3804 2 5.88 3.07195 5.33235 4.66738L4.95383 5.77154C4.94336 5.80295 4.91275 5.8255 4.87893 5.8255H3.94631C1.7702 5.8255 0 7.5957 0 9.77181V18.3289C0 20.505 1.7702 22.2752 3.94631 22.2752H20.0537C22.2298 22.2752 24 20.505 24 18.3289V9.77181C24 7.5957 22.2298 5.8255 20.0537 5.8255ZM22.5503 18.3289C22.5503 19.7052 21.4301 20.8255 20.0537 20.8255H3.94631C2.56993 20.8255 1.44966 19.7052 1.44966 18.3289V9.77181C1.44966 8.39544 2.56993 7.27517 3.94631 7.27517H4.87893C5.53289 7.27517 6.11356 6.8596 6.32617 6.24107L6.7047 5.13691C7.05101 4.12779 7.99973 3.44966 9.06684 3.44966H14.934C16.0003 3.44966 16.9498 4.12779 17.2961 5.13691L17.6746 6.24107C17.8872 6.8596 18.4679 7.27517 19.1219 7.27517H20.0537C21.4301 7.27517 22.5503 8.39544 22.5503 9.77181V18.3289Z" fill="#909AB7"/>
<path d="M12 8.35059C9.0467 8.35059 6.64429 10.753 6.64429 13.7063C6.64429 16.6596 9.0467 19.062 12 19.062C14.9533 19.062 17.3557 16.6596 17.3557 13.7063C17.3557 10.753 14.9533 8.35059 12 8.35059ZM12 17.6123C9.84643 17.6123 8.09395 15.8598 8.09395 13.7063C8.09395 11.5527 9.84643 9.80025 12 9.80025C14.1535 9.80025 15.906 11.5527 15.906 13.7063C15.906 15.8598 14.1535 17.6123 12 17.6123Z" fill="#909AB7"/>
</svg>
