<svg width="28" height="28" viewBox="0 0 28 28" fill="none" xmlns="http://www.w3.org/2000/svg">
<g clip-path="url(#clip0_1094_1202)">
<path d="M14 27.125H5.25C3.31712 27.125 1.75 25.5579 1.75 23.625V4.375C1.75 2.44212 3.31712 0.875 5.25 0.875H14C15.9329 0.875 17.5 2.44212 17.5 4.375V23.625C17.5 25.5579 15.9329 27.125 14 27.125Z" fill="white"/>
<path d="M14 0H5.25C2.83937 0 0.875 1.96437 0.875 4.375V23.625C0.875 26.0356 2.83937 28 5.25 28H14C16.4106 28 18.375 26.0356 18.375 23.625V4.375C18.375 1.96437 16.4106 0 14 0ZM16.625 23.625H2.625V4.375C2.625 2.92688 3.80188 1.75 5.25 1.75H14C15.4481 1.75 16.625 2.92688 16.625 4.375V23.625Z" fill="#333333"/>
<path d="M11.375 5.25H7.4375C6.9545 5.25 6.5625 4.858 6.5625 4.375C6.5625 3.892 6.9545 3.5 7.4375 3.5H11.375C11.858 3.5 12.25 3.892 12.25 4.375C12.25 4.858 11.858 5.25 11.375 5.25Z" fill="#454545"/>
<path d="M11.3751 19.25V20.125C11.3751 20.6062 10.9813 21 10.5001 21H8.31255C7.9013 21 7.54255 20.7112 7.45505 20.3087L6.14255 14.1837C6.09005 13.9256 6.1513 13.6544 6.31755 13.4487C6.4838 13.2431 6.73755 13.125 7.00005 13.125H8.75005C9.1963 13.125 9.57255 13.4619 9.62067 13.9038L10.0232 17.535L11.1169 18.6331C11.2832 18.795 11.3751 19.0181 11.3751 19.25Z" fill="#4A8AF8"/>
<path d="M21.4594 16.5069C21.7219 16.8306 21.7175 17.2988 21.4462 17.6181C21.2756 17.8194 21.0262 17.9288 20.7769 17.9288C20.6325 17.9288 20.4881 17.8938 20.3525 17.8194C17.8544 16.4369 15.0237 15.5663 12.1712 15.3081C11.7206 15.2688 11.375 14.8881 11.375 14.4375V8.31252C11.375 7.8619 11.7206 7.48127 12.1712 7.4419C13.6762 7.3019 15.1769 7.00002 16.6337 6.5319C17.92 6.12502 19.1712 5.58252 20.3525 4.93065C20.72 4.7294 21.175 4.81252 21.4462 5.1319C21.7175 5.45127 21.7219 5.9194 21.4594 6.24315C20.6369 7.2669 20.125 9.23565 20.125 11.375C20.125 13.5144 20.6369 15.4831 21.4594 16.5069Z" fill="#4DBCFB"/>
<path d="M12.25 7.875V14.875C12.25 15.3562 11.8562 15.75 11.375 15.75H7.875C5.94563 15.75 4.375 14.1794 4.375 12.25V10.5C4.375 8.57063 5.94563 7 7.875 7H11.375C11.8562 7 12.25 7.39375 12.25 7.875Z" fill="#4DBCFB"/>
<path d="M9.1875 12.25H7.4375C6.9545 12.25 6.5625 11.858 6.5625 11.375C6.5625 10.892 6.9545 10.5 7.4375 10.5H9.1875C9.6705 10.5 10.0625 10.892 10.0625 11.375C10.0625 11.858 9.6705 12.25 9.1875 12.25Z" fill="white"/>
<path d="M22.3125 17.9375C24.0039 17.9375 25.375 14.9994 25.375 11.375C25.375 7.75063 24.0039 4.8125 22.3125 4.8125C20.6211 4.8125 19.25 7.75063 19.25 11.375C19.25 14.9994 20.6211 17.9375 22.3125 17.9375Z" fill="#C4C4C4"/>
<path d="M23.1875 11.375C23.1875 13.335 21.7613 14.98 19.845 15.2643C19.4688 14.1793 19.25 12.8318 19.25 11.375C19.25 9.9181 19.4688 8.5706 19.845 7.4856C21.7613 7.76997 23.1875 9.41497 23.1875 11.375Z" fill="#333333"/>
<path d="M22.3125 18.8125C20.0677 18.8125 18.375 15.6148 18.375 11.375C18.375 7.13519 20.0677 3.9375 22.3125 3.9375C24.5573 3.9375 26.25 7.13519 26.25 11.375C26.25 15.6148 24.5573 18.8125 22.3125 18.8125ZM22.3125 5.6875C21.4204 5.6875 20.125 7.903 20.125 11.375C20.125 14.847 21.4204 17.0625 22.3125 17.0625C23.2046 17.0625 24.5 14.847 24.5 11.375C24.5 7.903 23.2046 5.6875 22.3125 5.6875Z" fill="#4A8AF8"/>
<path d="M23.1875 22.75C22.7045 22.75 22.3125 22.358 22.3125 21.875V21C22.3125 20.517 22.7045 20.125 23.1875 20.125C23.6705 20.125 24.0625 20.517 24.0625 21V21.875C24.0625 22.358 23.6705 22.75 23.1875 22.75Z" fill="#4DBCFB"/>
<path d="M26.2505 21.4375C25.9298 21.4375 25.6205 21.2603 25.4669 20.9536L25.0294 20.0786C24.8133 19.6464 24.9887 19.1209 25.421 18.9044C25.8528 18.6882 26.3787 18.8632 26.5952 19.2959L27.0327 20.1709C27.2489 20.6032 27.0734 21.1286 26.6412 21.3452C26.5156 21.4082 26.3822 21.4375 26.2505 21.4375Z" fill="#4DBCFB"/>
<path d="M23.1875 2.625C22.7045 2.625 22.3125 2.233 22.3125 1.75V0.875C22.3125 0.392 22.7045 0 23.1875 0C23.6705 0 24.0625 0.392 24.0625 0.875V1.75C24.0625 2.233 23.6705 2.625 23.1875 2.625Z" fill="#4DBCFB"/>
<path d="M25.8121 3.93748C25.6804 3.93748 25.547 3.90773 25.4214 3.84517C24.9891 3.62904 24.8141 3.1036 25.0298 2.67092L25.4673 1.79592C25.6839 1.36367 26.2093 1.18823 26.6416 1.40435C27.0738 1.62048 27.2488 2.14592 27.0331 2.5786L26.5956 3.4536C26.4416 3.76029 26.1328 3.93748 25.8121 3.93748Z" fill="#4DBCFB"/>
</g>
<defs>
<clipPath id="clip0_1094_1202">
<rect width="28" height="28" fill="white"/>
</clipPath>
</defs>
</svg>
