<svg width="18" height="18" viewBox="0 0 18 18" fill="none" xmlns="http://www.w3.org/2000/svg">
<g clip-path="url(#clip0_1094_10059)">
<path d="M9 0C4.0374 0 0 4.0374 0 9C0 13.9626 4.0374 18 9 18C13.9626 18 18 13.9626 18 9C18 4.0374 13.9626 0 9 0ZM9 17C4.5888 17 1 13.4112 1 9C1 4.5888 4.5888 1 9 1C13.4112 1 17 4.5888 17 9C17 13.4112 13.4112 17 9 17Z" fill="#4A8AF8"/>
<path d="M12 8.5H9.5V6C9.5 5.7238 9.2762 5.5 9 5.5C8.7238 5.5 8.5 5.7238 8.5 6V8.5H6C5.7238 8.5 5.5 8.7238 5.5 9C5.5 9.2762 5.7238 9.5 6 9.5H8.5V12C8.5 12.2762 8.7238 12.5 9 12.5C9.2762 12.5 9.5 12.2762 9.5 12V9.5H12C12.2762 9.5 12.5 9.2762 12.5 9C12.5 8.7238 12.2762 8.5 12 8.5Z" fill="#4A8AF8"/>
</g>
<defs>
<clipPath id="clip0_1094_10059">
<rect width="18" height="18" fill="white"/>
</clipPath>
</defs>
</svg>
