<svg width="70" height="70" viewBox="0 0 70 70" fill="none" xmlns="http://www.w3.org/2000/svg">
<path d="M35 68.9062C53.7259 68.9062 68.9062 53.7259 68.9062 35C68.9062 16.2741 53.7259 1.09375 35 1.09375C16.2741 1.09375 1.09375 16.2741 1.09375 35C1.09375 53.7259 16.2741 68.9062 35 68.9062Z" fill="#FFDD40"/>
<path d="M34.536 39.3633C39.8831 39.3633 44.2177 35.0287 44.2177 29.6817C44.2177 24.3346 39.8831 20 34.536 20C29.189 20 24.8544 24.3346 24.8544 29.6817C24.8544 35.0287 29.189 39.3633 34.536 39.3633Z" fill="#4E6EA1"/>
<path d="M52.9471 59.259L50.5267 48.7383C49.0099 42.1709 41.8294 40.1539 39.9737 41.1866C36.6981 43.0261 32.3736 43.0261 29.098 41.1866C27.3069 40.1861 20.0941 42.0418 18.545 48.7383L16.1246 59.259C15.4307 62.2926 16.0002 63.5 19 65C21.9999 66.5 24.5 69 34.5 69C44.5 69 46.7354 67.1809 49.5 65.5C52.2646 63.8191 53.6571 62.2764 52.9471 59.259Z" fill="#8E03D0"/>
</svg>
