<svg width="28" height="28" viewBox="0 0 28 28" fill="none" xmlns="http://www.w3.org/2000/svg">
<path d="M10.1931 5.00385L25.6771 10.1978L20.4831 25.6818L4.99915 20.4878L10.1931 5.00385Z" fill="#64B5F6"/>
<path d="M11.2221 7.29401L23.4266 11.2723L19.81 22.3673L7.60547 18.389L11.2221 7.29401Z" fill="#1E88E5"/>
<path d="M6.3472 3.37051L22.4029 6.32685L19.4465 22.3825L3.39087 19.4262L6.3472 3.37051Z" fill="#BBDEFB"/>
<path d="M7.7111 5.509L20.3519 7.75484L18.3103 19.2465L5.66943 17.0007L7.7111 5.509Z" fill="#3D71CA"/>
<path d="M2.33337 2.33334H18.6667V18.6667H2.33337V2.33334Z" fill="#333333"/>
<path d="M4.08337 4.08334H16.9167V15.75H4.08337V4.08334Z" fill="#4A8AF8"/>
<path d="M9.33337 7.58332C9.33337 6.94166 9.85837 6.41666 10.5 6.41666C11.1417 6.41666 11.6667 6.94166 11.6667 7.58332C11.6667 8.22499 10.5 9.91666 10.5 9.91666C10.5 9.91666 9.33337 8.22499 9.33337 7.58332ZM11.6667 12.25C11.6667 12.8917 11.1417 13.4167 10.5 13.4167C9.85837 13.4167 9.33337 12.8917 9.33337 12.25C9.33337 11.6083 10.5 9.91666 10.5 9.91666C10.5 9.91666 11.6667 11.6083 11.6667 12.25Z" fill="white"/>
<path d="M7.87502 9.74168C7.29169 9.39168 7.11669 8.69168 7.46669 8.16668C7.81669 7.58335 8.51669 7.40835 9.04169 7.75835C9.62502 8.10835 10.5 9.91668 10.5 9.91668C10.5 9.91668 8.45836 10.0917 7.87502 9.74168ZM13.125 10.0917C13.7084 10.4417 13.8834 11.1417 13.5334 11.6667C13.1834 12.25 12.4834 12.425 11.9584 12.075C11.375 11.7833 10.5 9.91668 10.5 9.91668C10.5 9.91668 12.5417 9.74168 13.125 10.0917Z" fill="white"/>
<path d="M13.125 9.74168C13.7084 9.39168 13.8834 8.69168 13.5334 8.16668C13.1834 7.58335 12.4834 7.40835 11.9584 7.75835C11.375 8.05001 10.5 9.91668 10.5 9.91668C10.5 9.91668 12.5417 10.0917 13.125 9.74168ZM7.87502 10.0917C7.29169 10.4417 7.11669 11.1417 7.46669 11.6667C7.81669 12.25 8.51669 12.425 9.04169 12.075C9.62502 11.725 10.5 9.91668 10.5 9.91668C10.5 9.91668 8.45836 9.74168 7.87502 10.0917Z" fill="white"/>
<path d="M10.5 11.0833C11.1444 11.0833 11.6667 10.561 11.6667 9.91667C11.6667 9.27233 11.1444 8.75 10.5 8.75C9.85571 8.75 9.33337 9.27233 9.33337 9.91667C9.33337 10.561 9.85571 11.0833 10.5 11.0833Z" fill="#333333"/>
</svg>
