<svg width="24" height="24" viewBox="0 0 24 24" fill="none" xmlns="http://www.w3.org/2000/svg">
<path d="M8.57177 12.0002C9.41954 12.0002 10.2483 11.7488 10.9532 11.2778C11.658 10.8068 12.2074 10.1373 12.5318 9.35409C12.8562 8.57084 12.9411 7.70898 12.7756 6.87751C12.6102 6.04603 12.2019 5.2823 11.6023 4.68288C11.0028 4.08347 10.239 3.67531 9.40752 3.51C8.57602 3.3447 7.71417 3.42969 6.93098 3.75422C6.14778 4.07875 5.47841 4.62825 5.00752 5.33322C4.53663 6.03819 4.28537 6.86696 4.28552 7.71474C4.28671 8.85109 4.73871 9.94054 5.5423 10.744C6.34589 11.5474 7.43542 11.9992 8.57177 12.0002Z" fill="#4A8AF8"/>
<path d="M17.625 12.375C18.2554 12.375 18.8717 12.1881 19.3959 11.8378C19.9201 11.4876 20.3286 10.9897 20.5699 10.4073C20.8111 9.82487 20.8742 9.18397 20.7513 8.56565C20.6283 7.94734 20.3247 7.37938 19.8789 6.9336C19.4331 6.48782 18.8652 6.18424 18.2469 6.06125C17.6285 5.93826 16.9876 6.00138 16.4052 6.24264C15.8228 6.48389 15.3249 6.89244 14.9747 7.41662C14.6244 7.9408 14.4375 8.55707 14.4375 9.1875C14.4385 10.0326 14.7746 10.8428 15.3722 11.4403C15.9698 12.0379 16.7799 12.374 17.625 12.375Z" fill="#4A8AF8"/>
<path d="M17.625 13.2522C16.8682 13.2545 16.1197 13.409 15.4239 13.7067C14.7281 14.0043 14.0993 14.439 13.575 14.9847C12.4322 14.0348 11.0424 13.4301 9.56845 13.2412C8.09446 13.0523 6.59716 13.2871 5.25174 13.9181C3.90633 14.5491 2.76843 15.5503 1.97121 16.8043C1.17398 18.0584 0.750391 19.5136 0.75 20.9997C0.75 21.1986 0.829018 21.3894 0.96967 21.53C1.11032 21.6707 1.30109 21.7497 1.5 21.7497H15.645C15.8439 21.7497 16.0347 21.6707 16.1753 21.53C16.316 21.3894 16.395 21.1986 16.395 20.9997C16.3937 20.5394 16.3518 20.0801 16.2698 19.6272H22.5C22.6989 19.6272 22.8897 19.5482 23.0303 19.4075C23.171 19.2669 23.25 19.0761 23.25 18.8772C23.2484 17.3858 22.6553 15.956 21.6007 14.9015C20.5462 13.8469 19.1164 13.2538 17.625 13.2522Z" fill="#4A8AF8"/>
</svg>
