<svg width="24" height="24" viewBox="0 0 24 24" fill="none" xmlns="http://www.w3.org/2000/svg">
<path d="M19.1429 0.728516H6.48399C5.00491 0.729185 3.80592 1.92801 3.80542 3.40709V4.56423H2.54649C2.2505 4.56423 2.01077 4.80413 2.01077 5.09994C2.01077 5.39576 2.2505 5.63566 2.54649 5.63566H3.79989V9.14994H2.54649C2.2505 9.14994 2.01077 9.38968 2.01077 9.68566C2.01077 9.98147 2.2505 10.2214 2.54649 10.2214H3.79989V13.7357H2.54649C2.2505 13.7357 2.01077 13.9756 2.01077 14.2714C2.01077 14.5674 2.2505 14.8071 2.54649 14.8071H3.79989V18.3214H2.54649C2.2505 18.3214 2.01077 18.5613 2.01077 18.8571C2.01077 19.1529 2.2505 19.3928 2.54649 19.3928H3.79989V20.5499C3.80056 22.029 4.99939 23.2278 6.47846 23.2285H19.1374C20.6165 23.2278 21.8156 22.029 21.816 20.5499V3.40709C21.8181 1.92902 20.621 0.72952 19.1429 0.728516ZM20.7501 20.5499C20.7474 21.4364 20.0294 22.1546 19.1429 22.1571H6.48399C5.59755 22.1546 4.87936 21.4364 4.87684 20.5499V19.3928H6.13025C6.42623 19.3928 6.66596 19.1529 6.66596 18.8571C6.66596 18.5613 6.42623 18.3214 6.13025 18.3214H4.87684V14.8071H6.13025C6.42623 14.8071 6.66596 14.5674 6.66596 14.2714C6.66596 13.9756 6.42623 13.7357 6.13025 13.7357H4.87684V10.2214H6.13025C6.42623 10.2214 6.66596 9.98147 6.66596 9.68566C6.66596 9.38968 6.42623 9.14994 6.13025 9.14994H4.87684V5.63566H6.13025C6.42623 5.63566 6.66596 5.39576 6.66596 5.09994C6.66596 4.80413 6.42623 4.56423 6.13025 4.56423H4.87684V3.40709C4.87936 2.52065 5.59755 1.80246 6.48399 1.79994H19.1429C20.0294 1.80246 20.7474 2.52065 20.7501 3.40709V20.5499Z" fill="#4A8AF8"/>
<path d="M12.8108 11.8231C14.2456 11.8231 15.409 10.66 15.409 9.22492C15.409 7.78988 14.2456 6.62671 12.8108 6.62671C11.3757 6.62671 10.2126 7.78988 10.2126 9.22492C10.2139 10.6593 11.3762 11.8218 12.8108 11.8231ZM12.8108 7.69278C13.6538 7.69278 14.3376 8.37649 14.3376 9.21957C14.3376 10.0626 13.6538 10.7464 12.8108 10.7464C11.9675 10.7464 11.284 10.0626 11.284 9.21957C11.2855 8.37716 11.968 7.69429 12.8108 7.69278Z" fill="#4A8AF8"/>
<path d="M12.8108 12.6858C10.5822 12.6858 8.8356 14.4911 8.8356 16.8001C8.83644 17.0956 9.07584 17.335 9.37132 17.3358H16.2501C16.5455 17.335 16.7849 17.0956 16.7858 16.8001C16.7858 14.4911 15.0392 12.6858 12.8108 12.6858ZM9.94989 16.2644C10.1804 14.8019 11.3322 13.7572 12.8108 13.7572C14.2892 13.7572 15.4465 14.8019 15.6715 16.2644H9.94989Z" fill="#4A8AF8"/>
</svg>
