<svg width="24" height="24" viewBox="0 0 24 24" fill="none" xmlns="http://www.w3.org/2000/svg">
<path d="M12 0C5.3832 0 0 5.3832 0 12C0 18.6168 5.3832 24 12 24C18.6168 24 24 18.6168 24 12C24 5.3832 18.6168 0 12 0ZM12 22.6667C6.1184 22.6667 1.33333 17.8816 1.33333 12C1.33333 6.1184 6.1184 1.33333 12 1.33333C17.8816 1.33333 22.6667 6.1184 22.6667 12C22.6667 17.8816 17.8816 22.6667 12 22.6667Z" fill="#C4C4C4"/>
<path d="M16 11.3333H12.6667V7.99992C12.6667 7.63165 12.3683 7.33325 12 7.33325C11.6317 7.33325 11.3333 7.63165 11.3333 7.99992V11.3333H8C7.63174 11.3333 7.33334 11.6317 7.33334 11.9999C7.33334 12.3682 7.63174 12.6666 8 12.6666H11.3333V15.9999C11.3333 16.3682 11.6317 16.6666 12 16.6666C12.3683 16.6666 12.6667 16.3682 12.6667 15.9999V12.6666H16C16.3683 12.6666 16.6667 12.3682 16.6667 11.9999C16.6667 11.6317 16.3683 11.3333 16 11.3333Z" fill="#C4C4C4"/>
</svg>
