<svg width="60" height="60" viewBox="0 0 60 60" fill="none" xmlns="http://www.w3.org/2000/svg">
<path d="M29.9998 0C13.4572 0 0 13.4572 0 29.9998C0 46.5423 13.4572 59.9995 29.9998 59.9995C46.5423 59.9995 59.9995 46.5423 59.9995 29.9998C59.9995 13.4572 46.5423 0 29.9998 0Z" fill="#4A8AF8"/>
<path d="M29.6765 30.3631C35.0235 30.3631 39.3581 26.0285 39.3581 20.6815C39.3581 15.3345 35.0235 10.9999 29.6765 10.9999C24.3295 10.9999 19.995 15.3345 19.995 20.6815C19.995 26.0285 24.3295 30.3631 29.6765 30.3631Z" fill="white"/>
<path d="M48.0875 50.2591L45.6671 39.7384C44.1503 33.1711 36.9698 31.1541 35.1142 32.1868C31.8386 34.0263 27.5141 34.0263 24.2385 32.1868C22.4474 31.1864 15.2347 33.042 13.6856 39.7384L11.2652 50.2591C10.5714 53.2926 11.1409 54.5001 14.1407 56C17.1405 57.5 19.6406 60 29.6405 60C39.6404 60 41.8758 58.181 44.6404 56.5C47.4049 54.8191 48.7975 53.2765 48.0875 50.2591Z" fill="white"/>
</svg>
