<svg width="18" height="18" viewBox="0 0 18 18" fill="none" xmlns="http://www.w3.org/2000/svg">
<path d="M9 0C4.0374 0 0 4.0374 0 9C0 13.9626 4.0374 18 9 18C13.9626 18 18 13.9626 18 9C18 4.0374 13.9626 0 9 0ZM9 17C4.5888 17 1 13.4112 1 9C1 4.5888 4.5888 1 9 1C13.4112 1 17 4.5888 17 9C17 13.4112 13.4112 17 9 17Z" fill="#4A8AF8"/>
<path d="M11.4749 10.7677L9.70711 8.99998L11.4749 7.23221C11.6702 7.03691 11.6702 6.72041 11.4749 6.52511C11.2796 6.3298 10.9631 6.3298 10.7678 6.52511L9 8.29287L7.23223 6.52511C7.03693 6.3298 6.72043 6.3298 6.52513 6.52511C6.32982 6.72041 6.32982 7.03691 6.52513 7.23221L8.29289 8.99998L6.52513 10.7677C6.32982 10.963 6.32982 11.2796 6.52513 11.4749C6.72043 11.6702 7.03693 11.6702 7.23223 11.4749L9 9.70709L10.7678 11.4749C10.9631 11.6702 11.2796 11.6702 11.4749 11.4749C11.6702 11.2796 11.6702 10.963 11.4749 10.7677Z" fill="#4A8AF8"/>
</svg>
