<svg width="24" height="24" viewBox="0 0 24 24" fill="none" xmlns="http://www.w3.org/2000/svg">
<path d="M8.57165 12C9.41942 12 10.2482 11.7486 10.953 11.2776C11.6579 10.8066 12.2073 10.1371 12.5317 9.35385C12.8561 8.57059 12.9409 7.70873 12.7755 6.87726C12.61 6.04579 12.2017 5.28205 11.6022 4.68264C11.0027 4.08323 10.2389 3.67506 9.4074 3.50976C8.5759 3.34446 7.71405 3.42945 6.93085 3.75398C6.14766 4.07851 5.47829 4.62801 5.0074 5.33298C4.53651 6.03794 4.28525 6.86672 4.2854 7.71449C4.28659 8.85084 4.73858 9.9403 5.54218 10.7437C6.34577 11.5472 7.4353 11.999 8.57165 12ZM8.57165 4.92824C9.12272 4.92824 9.66141 5.09165 10.1196 5.39781C10.5778 5.70397 10.9349 6.13912 11.1458 6.64824C11.3567 7.15736 11.4119 7.71758 11.3044 8.25806C11.1969 8.79854 10.9315 9.295 10.5418 9.68467C10.1522 10.0743 9.6557 10.3397 9.11522 10.4472C8.57474 10.5547 8.01452 10.4995 7.5054 10.2887C6.99628 10.0778 6.56113 9.72065 6.25497 9.26245C5.94881 8.80425 5.7854 8.26556 5.7854 7.71449C5.786 6.97572 6.07974 6.26737 6.60213 5.74497C7.12453 5.22258 7.83287 4.92884 8.57165 4.92824Z" fill="#909AB7"/>
<path d="M17.625 12.375C18.2554 12.375 18.8717 12.1881 19.3959 11.8378C19.9201 11.4876 20.3286 10.9897 20.5699 10.4073C20.8111 9.82487 20.8742 9.18397 20.7513 8.56565C20.6283 7.94734 20.3247 7.37938 19.8789 6.9336C19.4331 6.48782 18.8652 6.18424 18.2469 6.06125C17.6285 5.93826 16.9876 6.00138 16.4052 6.24264C15.8228 6.48389 15.3249 6.89244 14.9747 7.41662C14.6244 7.9408 14.4375 8.55707 14.4375 9.1875C14.4385 10.0326 14.7746 10.8428 15.3722 11.4403C15.9698 12.0379 16.7799 12.374 17.625 12.375ZM17.625 7.5C17.9588 7.5 18.285 7.59897 18.5625 7.7844C18.84 7.96982 19.0563 8.23337 19.184 8.54172C19.3118 8.85007 19.3452 9.18937 19.2801 9.51672C19.215 9.84406 19.0542 10.1447 18.8182 10.3807C18.5822 10.6167 18.2816 10.7775 17.9542 10.8426C17.6269 10.9077 17.2876 10.8743 16.9792 10.7465C16.6709 10.6188 16.4073 10.4025 16.2219 10.125C16.0365 9.84752 15.9375 9.52126 15.9375 9.1875C15.9379 8.74007 16.1158 8.31108 16.4322 7.9947C16.7486 7.67832 17.1776 7.5004 17.625 7.5Z" fill="#909AB7"/>
<path d="M17.625 13.2525C16.8682 13.2548 16.1197 13.4094 15.4239 13.707C14.7281 14.0046 14.0993 14.4393 13.575 14.985C12.4322 14.0351 11.0424 13.4304 9.56845 13.2415C8.09446 13.0526 6.59716 13.2874 5.25174 13.9184C3.90633 14.5494 2.76843 15.5506 1.97121 16.8047C1.17398 18.0587 0.750391 19.5139 0.75 21C0.75 21.1989 0.829018 21.3897 0.96967 21.5303C1.11032 21.671 1.30109 21.75 1.5 21.75H15.645C15.8439 21.75 16.0347 21.671 16.1753 21.5303C16.316 21.3897 16.395 21.1989 16.395 21C16.3937 20.5397 16.3518 20.0804 16.2698 19.6275H22.5C22.6989 19.6275 22.8897 19.5485 23.0303 19.4078C23.171 19.2672 23.25 19.0764 23.25 18.8775C23.2484 17.3861 22.6553 15.9563 21.6007 14.9018C20.5462 13.8472 19.1164 13.2541 17.625 13.2525ZM2.29425 20.25C2.46306 18.8122 3.1205 17.476 4.15659 16.4649C5.19268 15.4539 6.54457 14.8293 7.98605 14.6957C9.42754 14.5621 10.8712 14.9275 12.0755 15.7309C13.2797 16.5344 14.1716 17.727 14.6017 19.1092C14.7216 19.4805 14.8047 19.8625 14.85 20.25H2.29425ZM15.8333 18.1275C15.5398 17.3788 15.1322 16.68 14.625 16.056C15.1463 15.4995 15.8118 15.0987 16.5475 14.8981C17.2831 14.6974 18.06 14.7049 18.7916 14.9196C19.5232 15.1344 20.1809 15.5479 20.6915 16.1143C21.202 16.6806 21.5453 17.3776 21.6833 18.1275H15.8333Z" fill="#909AB7"/>
</svg>
