<svg width="20" height="20" viewBox="0 0 20 20" fill="none" xmlns="http://www.w3.org/2000/svg">
<path d="M16.818 3.48407C15.7008 3.36571 14.6012 3.11718 13.5417 2.74353C12.5697 2.40003 11.6372 1.95356 10.7601 1.41174C10.5313 1.27165 10.2683 1.19751 10 1.19751C9.73173 1.19751 9.46869 1.27165 9.23991 1.41174C8.36285 1.95357 7.43035 2.40004 6.45833 2.74353C5.39879 3.11719 4.29921 3.36572 3.18197 3.48409C2.82337 3.5209 2.49119 3.68947 2.24975 3.95714C2.0083 4.22482 1.87477 4.57256 1.875 4.93304V9.26247C1.87558 10.86 2.30304 12.4283 3.11315 13.8051C3.92326 15.182 5.08659 16.3173 6.48275 17.0937L9.29117 18.6537C9.50756 18.7751 9.75146 18.8388 9.99954 18.8389C10.2476 18.839 10.4916 18.7753 10.708 18.6541L13.5172 17.0937C14.9134 16.3173 16.0767 15.182 16.8868 13.8051C17.697 12.4283 18.1244 10.86 18.125 9.26247V4.93304C18.1252 4.57256 17.9917 4.22481 17.7503 3.95713C17.5088 3.68945 17.1766 3.52088 16.818 3.48407Z" fill="#0DB561"/>
<path d="M9.4165 12.6938C9.17153 12.6942 8.93506 12.604 8.75244 12.4408L6.37777 10.3302C6.27923 10.2431 6.19884 10.1374 6.14121 10.0192C6.08357 9.90099 6.04983 9.77257 6.04191 9.6413C6.034 9.51003 6.05206 9.37848 6.09506 9.2542C6.13806 9.12992 6.20517 9.01534 6.29253 8.91704C6.37988 8.81874 6.48578 8.73863 6.60415 8.68132C6.72251 8.62401 6.85103 8.59062 6.98232 8.58306C7.11361 8.5755 7.24511 8.59392 7.36927 8.63726C7.49344 8.6806 7.60783 8.74801 7.70589 8.83564L9.35303 10.2993L12.6457 6.78727C12.8272 6.59421 13.0778 6.48099 13.3426 6.47244C13.6075 6.4639 13.8649 6.56073 14.0584 6.7417C14.2519 6.92315 14.3655 7.17398 14.3742 7.43909C14.3829 7.70421 14.286 7.96194 14.1048 8.15568L10.1465 12.3781C10.0531 12.4781 9.94006 12.5578 9.81445 12.6122C9.68884 12.6665 9.55336 12.6943 9.4165 12.6938Z" fill="white"/>
</svg>
