<svg width="24" height="24" viewBox="0 0 24 24" fill="none" xmlns="http://www.w3.org/2000/svg">
<path d="M20.0537 5.8255H19.1211C19.0872 5.8255 19.0566 5.80376 19.0454 5.77074L18.6668 4.66658C18.1192 3.07195 16.6188 2 14.9332 2H9.06604C7.3804 2 5.88 3.07195 5.33235 4.66738L4.95383 5.77154C4.94336 5.80295 4.91275 5.8255 4.87893 5.8255H3.94631C1.7702 5.8255 0 7.5957 0 9.77181V18.3289C0 20.505 1.7702 22.2752 3.94631 22.2752H20.0537C22.2298 22.2752 24 20.505 24 18.3289V9.77181C24 7.5957 22.2298 5.8255 20.0537 5.8255Z" fill="#4A8AF8"/>
<path d="M19.248 10.702C19.6972 10.702 20.0614 10.3379 20.0614 9.88862C20.0614 9.43938 19.6972 9.0752 19.248 9.0752C18.7988 9.0752 18.4346 9.43938 18.4346 9.88862C18.4346 10.3379 18.7988 10.702 19.248 10.702Z" fill="white"/>
<path d="M7.14429 13.7063C7.14429 11.0291 9.32284 8.85059 12 8.85059C14.6771 8.85059 16.8557 11.0291 16.8557 13.7063C16.8557 16.3834 14.6771 18.562 12 18.562C9.32284 18.562 7.14429 16.3834 7.14429 13.7063ZM7.59395 13.7063C7.59395 16.136 9.57029 18.1123 12 18.1123C14.4297 18.1123 16.406 16.136 16.406 13.7063C16.406 11.2766 14.4297 9.30025 12 9.30025C9.57029 9.30025 7.59395 11.2766 7.59395 13.7063Z" fill="#333333" stroke="white"/>
</svg>
