<svg width="28" height="28" viewBox="0 0 28 28" fill="none" xmlns="http://www.w3.org/2000/svg">
<g clip-path="url(#clip0_1094_5023)">
<path fill-rule="evenodd" clip-rule="evenodd" d="M9.16804 2.94254C9.07795 2.8115 9.07672 2.63882 9.16492 2.50651L10.7205 0.173172C10.7926 0.0649838 10.914 0 11.0441 0H16.4885C16.6185 0 16.7399 0.0649838 16.8121 0.173172L18.3676 2.50651C18.4558 2.63882 18.4546 2.8115 18.3645 2.94254L14.7091 8.25944C14.4094 8.22997 14.1056 8.2144 13.7983 8.21339L17.5696 2.72222L16.2785 0.777778H11.254L9.96293 2.72222L13.7343 8.21339C13.427 8.2144 13.1232 8.22997 12.8234 8.25944L9.16804 2.94254Z" fill="#FB1C5F"/>
<path fill-rule="evenodd" clip-rule="evenodd" d="M17.6562 3.11127C17.8709 3.11127 18.0451 2.93716 18.0451 2.72239C18.0451 2.50761 17.8709 2.3335 17.6562 2.3335H9.87839C9.66361 2.3335 9.4895 2.50761 9.4895 2.72239C9.4895 2.93716 9.66361 3.11127 9.87839 3.11127H17.6562Z" fill="#FB1C5F"/>
<path fill-rule="evenodd" clip-rule="evenodd" d="M10.5137 0.878339L11.8867 2.93794C12.0407 3.16884 12.38 3.16884 12.5339 2.93794L13.7659 1.08888L14.9978 2.93794C15.1518 3.16884 15.4911 3.16884 15.645 2.93794L16.9923 0.916966L16.3716 0.446088L15.3214 2.02223L14.0894 0.173172C13.9355 -0.057724 13.5962 -0.057724 13.4423 0.173172L12.2103 2.02223L11.1686 0.458806L10.5137 0.878339Z" fill="#FB1C5F"/>
<path fill-rule="evenodd" clip-rule="evenodd" d="M11.8352 2.82247L12.5867 2.62207L13.7665 7.04631L14.9463 2.62207L15.6978 2.82247L14.2077 8.4103C14.0615 8.40349 13.9144 8.40005 13.7665 8.40005C13.6186 8.40005 13.4715 8.40349 13.3253 8.4103L11.8352 2.82247Z" fill="#FB1C5F"/>
<path fill-rule="evenodd" clip-rule="evenodd" d="M13.7667 28.0001C19.4368 28.0001 24.0333 23.4036 24.0333 17.7335C24.0333 12.0633 19.4368 7.4668 13.7667 7.4668C8.09654 7.4668 3.5 12.0633 3.5 17.7335C3.5 23.4036 8.09654 28.0001 13.7667 28.0001ZM13.7667 27.0668C18.9213 27.0668 23.1 22.8881 23.1 17.7335C23.1 12.5788 18.9213 8.40013 13.7667 8.40013C8.61201 8.40013 4.43333 12.5788 4.43333 17.7335C4.43333 22.8881 8.61201 27.0668 13.7667 27.0668Z" fill="#FB1C5F"/>
</g>
<defs>
<clipPath id="clip0_1094_5023">
<rect width="28" height="28" fill="white"/>
</clipPath>
</defs>
</svg>
