<svg width="24" height="24" viewBox="0 0 24 24" fill="none" xmlns="http://www.w3.org/2000/svg">
<path d="M19.8348 2.16742H17.5035V1.70968C17.5035 1.52146 17.4288 1.34095 17.2957 1.20786C17.1626 1.07477 16.9821 1 16.7939 1C16.6057 1 16.4251 1.07477 16.2921 1.20786C16.159 1.34095 16.0842 1.52146 16.0842 1.70968V2.16742H7.97613V1.70968C7.97613 1.52146 7.90136 1.34095 7.76827 1.20786C7.63518 1.07477 7.45467 1 7.26645 1C7.07823 1 6.89772 1.07477 6.76463 1.20786C6.63154 1.34095 6.55677 1.52146 6.55677 1.70968V2.16742H4.16516C3.32632 2.16742 2.52179 2.5004 1.92831 3.09322C1.33483 3.68603 1.00094 4.49019 1 5.32903V19.3806C1.00094 20.2195 1.33483 21.0236 1.92831 21.6165C2.52179 22.2093 3.32632 22.5423 4.16516 22.5423H19.8348C20.6737 22.5423 21.4782 22.2093 22.0717 21.6165C22.6652 21.0236 22.9991 20.2195 23 19.3806V5.32903C22.9991 4.49019 22.6652 3.68603 22.0717 3.09322C21.4782 2.5004 20.6737 2.16742 19.8348 2.16742ZM2.41935 5.32903C2.41935 4.86696 2.60291 4.42381 2.92965 4.09707C3.25639 3.77033 3.69954 3.58677 4.16161 3.58677H6.55323V4.04806C6.55323 4.23628 6.628 4.41679 6.76109 4.54988C6.89418 4.68297 7.07469 4.75774 7.2629 4.75774C7.45112 4.75774 7.63163 4.68297 7.76472 4.54988C7.89781 4.41679 7.97258 4.23628 7.97258 4.04806V3.58677H16.0842V4.04806C16.0842 4.23628 16.159 4.41679 16.2921 4.54988C16.4251 4.68297 16.6057 4.75774 16.7939 4.75774C16.9821 4.75774 17.1626 4.68297 17.2957 4.54988C17.4288 4.41679 17.5035 4.23628 17.5035 4.04806V3.58677H19.8348C20.0639 3.58631 20.2909 3.63103 20.5027 3.71838C20.7145 3.80572 20.9069 3.93398 21.0691 4.09581C21.2313 4.25764 21.3599 4.44987 21.4477 4.66148C21.5355 4.87309 21.5806 5.09994 21.5806 5.32903V7.94774H2.41935V5.32903ZM19.8348 21.1229H4.16516C3.93607 21.1234 3.70913 21.0786 3.49734 20.9913C3.28555 20.904 3.09306 20.7757 2.9309 20.6139C2.76874 20.452 2.64009 20.2598 2.55232 20.0482C2.46454 19.8366 2.41935 19.6097 2.41935 19.3806V9.3671H21.5806V19.3806C21.5806 19.6097 21.5355 19.8366 21.4477 20.0482C21.3599 20.2598 21.2313 20.452 21.0691 20.6139C20.9069 20.7757 20.7145 20.904 20.5027 20.9913C20.2909 21.0786 20.0639 21.1234 19.8348 21.1229Z" fill="#999999"/>
</svg>
