<svg width="12" height="12" viewBox="0 0 12 12" fill="none" xmlns="http://www.w3.org/2000/svg">
<path d="M11.3333 8.20533C10.1827 8.20533 9.08533 7.95467 8.07333 7.46C7.91467 7.384 7.73067 7.372 7.56267 7.42933C7.39467 7.488 7.25733 7.61067 7.18 7.76933L6.7 8.76267C5.26 7.936 4.06533 6.74 3.23733 5.3L4.232 4.82C4.392 4.74267 4.51333 4.60533 4.572 4.43733C4.62933 4.26933 4.61867 4.08533 4.54133 3.92667C4.04533 2.916 3.79467 1.81867 3.79467 0.666667C3.79467 0.298667 3.496 0 3.128 0H0.666667C0.298667 0 0 0.298667 0 0.666667C0 6.916 5.084 12 11.3333 12C11.7013 12 12 11.7013 12 11.3333V8.872C12 8.504 11.7013 8.20533 11.3333 8.20533Z" fill="#FAFAFA"/>
</svg>
