<svg width="28" height="28" viewBox="0 0 28 28" fill="none" xmlns="http://www.w3.org/2000/svg">
<path d="M18.8902 26.6971V16.7794L17.2815 16.0258L16.8449 13.7069H11.1552L10.7186 16.0258L9.16174 16.7552V26.6971H18.8902Z" fill="#DCDCDC"/>
<path d="M25.585 27.7812L25.1694 22.4687C25.1018 21.6028 24.8058 20.7704 24.3116 20.0562C23.8174 19.3419 23.1427 18.7715 22.3563 18.403L17.8916 16.3113V17.6032H17.3828V18.2814H9.89301V16.4126L5.64379 18.403C4.85722 18.7714 4.1824 19.3418 3.6881 20.056C3.19381 20.7702 2.89772 21.6027 2.83001 22.4687L2.41504 27.7812H25.585Z" fill="#E2F5FF"/>
<path d="M14.6643 18.2962H12.5258L12.1185 19.2458L13.3459 20.8079L12.6324 24.2331L13.9989 27.1939L15.5299 24.0093L14.8886 20.7441L15.8605 19.1461L14.6643 18.2962Z" fill="#4A8AF8"/>
<path d="M25.1696 22.4687C25.102 21.6028 24.8059 20.7703 24.3117 20.0561C23.8175 19.3419 23.1428 18.7715 22.3563 18.403L18.2875 16.4964C17.9557 18.3859 17.1678 20.1176 16.3116 21.8229C15.9145 22.6139 15.5424 23.4021 15.1922 24.2132C14.9969 24.6627 14 27.2893 14 27.2893C14 27.2893 12.3839 23.2665 12.0897 22.5039C11.6909 21.4696 11.384 20.3934 10.8555 19.4149C10.7649 19.2471 10.6694 19.0822 10.5711 18.9184C9.67207 18.5653 9.20985 17.8027 9.22691 16.7241L5.64379 18.403C4.85722 18.7714 4.1824 19.3418 3.6881 20.056C3.19381 20.7702 2.89772 21.6027 2.83001 22.4687L2.41504 27.7812H25.585L25.1696 22.4687Z" fill="#707583"/>
<path d="M25.1696 22.4687C25.102 21.6028 24.8059 20.7703 24.3117 20.0561C23.8175 19.3419 23.1428 18.7715 22.3563 18.403L18.2875 16.4964C17.9557 18.3859 17.1678 20.1176 16.3116 21.8229C15.9145 22.6139 15.5424 23.4021 15.1922 24.2132C14.9969 24.6627 14 27.2893 14 27.2893C14 27.2893 12.3839 23.2665 12.0897 22.5039C11.6909 21.4696 11.384 20.3934 10.8555 19.4149C10.7649 19.2471 10.6694 19.0822 10.5711 18.9184C9.67207 18.5653 9.20985 17.8027 9.22691 16.7241L5.64379 18.403C4.85722 18.7714 4.1824 19.3418 3.6881 20.056C3.19381 20.7702 2.89772 21.6027 2.83001 22.4687L2.41504 27.7812H25.585L25.1696 22.4687Z" fill="#333333"/>
<path d="M25.5851 27.7813H22.4482L22.0326 22.4678C21.9642 21.602 21.6677 20.7698 21.1732 20.0559C20.6786 19.3419 20.0037 18.7718 19.2172 18.4034L17.9769 17.8216C18.1034 17.3855 18.2063 16.943 18.2854 16.4959L22.3563 18.4034C23.1425 18.7719 23.8171 19.3421 24.3112 20.0561C24.8054 20.77 25.1015 21.6022 25.1694 22.4678L25.5851 27.7813Z" fill="#333333"/>
<path d="M20.2014 10.7119C20.4336 9.71991 20.1718 8.81043 19.6168 8.6805C19.0617 8.55057 18.4235 9.24939 18.1913 10.2414C17.9591 11.2333 18.2208 12.1428 18.7759 12.2727C19.3309 12.4027 19.9691 11.7038 20.2014 10.7119Z" fill="#DCDCDC"/>
<path d="M9.19039 12.2806C9.74545 12.1507 10.0072 11.2412 9.77496 10.2493C9.54275 9.2573 8.90455 8.55848 8.3495 8.68841C7.79444 8.81835 7.53272 9.72782 7.76493 10.7198C7.99713 11.7118 8.63534 12.4106 9.19039 12.2806Z" fill="#DCDCDC"/>
<path d="M13.9788 15.6933C16.8577 15.6933 19.1914 12.4768 19.1914 8.50893C19.1914 4.54109 16.8577 1.32452 13.9788 1.32452C11.1 1.32452 8.76624 4.54109 8.76624 8.50893C8.76624 12.4768 11.1 15.6933 13.9788 15.6933Z" fill="white"/>
<path d="M18.8643 10.9874C18.8643 10.9874 20.7051 7.69847 20.3063 5.0901C19.9076 2.48172 18.1503 1.65835 17.1063 1.65835C17.1063 1.65835 15.6971 -0.428307 12.2148 0.422849C8.7325 1.27401 7.33228 5.09797 7.99116 7.51035C8.65003 9.92272 9.08928 11.0309 9.08928 11.0309C9.08928 11.0309 8.65003 7.94654 9.14419 6.24357C9.63835 4.5406 11.121 3.19594 11.6977 3.66232C12.2743 4.12869 15.9532 3.97404 16.5572 2.94044C17.3507 3.52188 17.8817 4.39373 18.0344 5.36551C18.2313 6.93044 19.1104 7.89141 19.0282 9.01688C18.9459 10.1423 18.8643 10.9874 18.8643 10.9874Z" fill="#454545"/>
<path d="M17.1314 15.2213L14 18.2812L16.7952 20.202L18.1033 16.4065L17.1314 15.2213Z" fill="#B1E3FF"/>
<path d="M9.89673 16.4065L11.3138 20.1134L14 18.2812L10.8686 15.2213L9.89673 16.4065Z" fill="#B1E3FF"/>
<path d="M18.9184 16.7926L17.1315 15.2213L17.1277 15.2176C17.1277 15.2176 17.0951 19.9119 13.9996 27.1939C10.9034 19.9119 10.8715 15.2176 10.8715 15.2176L10.8678 15.2213L9.08102 16.7926L8.76624 19.4488L10.2478 19.2119L9.1368 20.8963C9.78102 22.4656 14 27.3656 14 27.3656C14.664 26.6326 18.3186 22.4015 18.8876 21.0147L17.7512 19.2119L19.4095 19.2592L18.9184 16.7926Z" fill="#4A8AF8"/>
</svg>
