<svg width="42" height="48" viewBox="0 0 42 48" fill="none" xmlns="http://www.w3.org/2000/svg">
<path d="M18.9651 0.102543C14.0264 0.775481 13.557 3.57561 13.5548 4.60292C13.5543 4.81836 13.435 5.01804 13.2413 5.11226C10.6724 6.36195 12.0574 12.5726 12.0574 12.5726C12.3154 12.5899 12.7729 12.6943 12.9743 12.7919C13.0236 12.485 13.1041 11.9953 13.2179 11.7033C13.3045 11.4807 13.4128 11.2559 13.5481 11.0434C13.7831 10.6749 13.89 10.2401 13.8582 9.80539C13.7658 8.54886 13.6229 6.26042 15.2814 5.51407C16.6865 4.88182 18.4102 5.24792 19.5093 5.61345C20.2231 5.85082 20.9964 5.85082 21.7103 5.61345C22.8095 5.24792 24.5331 4.88182 25.9382 5.51407C27.5921 6.25826 27.4536 8.53479 27.3623 9.79461C27.3305 10.2326 27.4347 10.6719 27.6714 11.0434C27.8112 11.2626 27.9221 11.4951 28.0101 11.7247C28.1195 12.0101 28.1973 12.4925 28.2454 12.792C28.4993 12.669 29.0496 12.535 29.36 12.5789C29.398 11.2619 29.5196 9.65454 29.5196 9.65454C30.9832 2.48632 24.2828 -0.62205 18.9651 0.102543Z" fill="#56415E"/>
<path d="M20.7042 0.00213404C20.1165 -0.00817846 19.533 0.0251028 18.9651 0.102447C14.0264 0.775384 13.557 3.57551 13.5548 4.60282C13.5543 4.81826 13.435 5.01795 13.2413 5.11217C10.6724 6.36185 12.0574 12.5725 12.0574 12.5725C12.3154 12.5898 12.7729 12.6942 12.9743 12.7917C13.0236 12.4848 13.1041 11.9951 13.2179 11.7031C13.3045 11.4805 13.4128 11.2557 13.5481 11.0433C13.7831 10.6747 13.89 10.2399 13.8582 9.8052C13.7658 8.54867 13.6229 6.26023 15.2814 5.51388C16.6865 4.88163 18.4102 5.24773 19.5093 5.61326C19.5492 5.62648 19.5893 5.63876 19.6295 5.65048C19.5931 5.57482 19.554 5.49963 19.5091 5.42567C17.2808 1.75338 20.7041 0.00222779 20.7042 0.00213404Z" fill="#45304C"/>
<path d="M18.7169 30.4849C18.7169 30.4849 20.042 31.0662 20.6107 31.9002C21.1794 31.0662 22.5046 30.4849 22.5046 30.4849L27.9687 27.7057C27.5736 27.5888 27.1732 27.4819 26.7647 27.3876C25.813 26.4358 25.5717 24.6314 25.5283 23.369C25.0316 23.9475 24.5103 24.4314 24.0122 24.8181C23.0417 25.5718 21.8443 25.9811 20.6108 25.9811C19.3774 25.9811 18.1799 25.5718 17.2095 24.8181C16.7114 24.4313 16.19 23.9474 15.6933 23.369C15.6498 24.6314 15.4086 26.4358 14.4568 27.3876C14.0484 27.4818 13.6479 27.5888 13.2529 27.7057L18.7169 30.4849Z" fill="#CC8C60"/>
<path d="M17.2096 24.8182C16.7114 24.4314 16.1902 23.9475 15.6935 23.369C15.6641 24.2217 15.5436 25.3209 15.1758 26.2383C16.1708 28.2588 17.7115 30.8099 18.8615 30.0705C20.1669 29.2312 20.5006 27.1319 20.5844 25.9806C19.3603 25.9747 18.173 25.5663 17.2096 24.8182Z" fill="#BA7D54"/>
<path d="M18.8198 30.3292L13.5119 27.6295C13.1992 27.7175 12.8904 27.8125 12.585 27.9143L13.5258 46.8849C15.7574 47.6078 18.1379 48 20.6103 48C20.6908 48 20.7707 47.9979 20.8511 47.997C20.8511 43.2167 20.8511 33.2254 20.8511 32.3605C20.8511 31.2198 18.8198 30.3292 18.8198 30.3292Z" fill="#BEC8F7"/>
<path d="M14.4401 33.5502L12.93 27.8037C12.8146 27.8399 12.6993 27.8761 12.585 27.9141L12.8956 34.1787C13.0159 34.1738 13.0829 34.1733 13.0829 34.1733C13.4902 33.2796 14.4401 33.5502 14.4401 33.5502Z" fill="#A8B7EF"/>
<path d="M22.4009 30.3292C22.4009 30.3292 20.3696 31.2198 20.3696 32.3605V47.997C20.4499 47.9979 20.5298 48 20.6104 48C23.0828 48 25.4633 47.6078 27.695 46.8849L28.6358 27.9143C28.3304 27.8126 28.0216 27.7176 27.7089 27.6295L22.4009 30.3292Z" fill="#D3DCFB"/>
<path d="M24.1035 39.6335V45.7979C24.1035 46.4166 24.6098 46.9229 25.2285 46.9229H27.577C27.6163 46.9104 27.6553 46.8975 27.6944 46.8847L28.1098 38.5085H25.2285C24.6098 38.5085 24.1035 39.0148 24.1035 39.6335Z" fill="#DEEEFF"/>
<path d="M26.0683 25.2176C25.9604 25.158 25.8263 25.2203 25.8016 25.341C25.6412 26.1266 24.9452 28.6016 22.3606 30.0704C22.1061 30.2151 22.0452 30.5546 22.2377 30.7752L24.8494 33.7665C25.3917 34.3911 26.39 34.2788 26.7814 33.5501C27.4432 32.3182 28.365 30.4432 29.0473 28.4274C29.1694 28.0664 29.0826 27.6673 28.8251 27.3865C28.0307 26.5199 27.0999 25.7871 26.0683 25.2176Z" fill="#DEEEFF"/>
<path d="M15.1537 25.2176C15.2616 25.158 15.3956 25.2203 15.4203 25.341C15.5807 26.1266 16.2767 28.6016 18.8613 30.0704C19.1158 30.2151 19.1767 30.5546 18.9842 30.7752L16.3725 33.7665C15.8302 34.3911 14.8319 34.2788 14.4405 33.5501C13.7788 32.3182 12.857 30.4432 12.1747 28.4274C12.0525 28.0664 12.1394 27.6673 12.3968 27.3865C13.1913 26.5199 14.1221 25.7871 15.1537 25.2176Z" fill="#DEEEFF"/>
<path d="M37.5731 31.1277C37.2513 30.9759 36.9067 30.8459 36.5401 30.7377L31.3857 28.2844L30.519 45.758C35.1645 43.5333 38.9446 39.7925 41.2211 35.1768C41.1363 34.9685 41.0462 34.7624 40.9458 34.5605C40.2419 33.1459 39.1766 31.8841 37.5731 31.1277Z" fill="#548BED"/>
<path d="M28.4912 27.0395L27.5039 46.9467C28.5563 46.616 29.5761 46.2122 30.5571 45.7401L31.4219 28.3019L30.5078 27.8668C29.8488 27.5758 29.1782 27.2626 28.4912 27.0395Z" fill="#72AAFC"/>
<path d="M9.38386 34.6274C6.92704 35.3975 5.62842 36.8049 5.62842 38.6974V42.4393C7.1617 43.7602 8.87067 44.8828 10.7169 45.7653L10.154 34.4165C9.90023 34.4768 9.64186 34.5465 9.38386 34.6274Z" fill="#548BED"/>
<path d="M9.85003 28.2774L4.68094 30.7376C4.31447 30.8458 3.96975 30.9759 3.648 31.1276C2.0445 31.884 0.979219 33.1457 0.27525 34.5605C0.174844 34.7623 0.0846563 34.9685 0 35.1767C1.40222 38.0198 3.37556 40.5301 5.76956 42.5593C5.76956 41.4478 5.76956 40.1398 5.76956 38.6972C5.76956 36.1645 8.12428 35.0497 10.1616 34.5589L9.85003 28.2774Z" fill="#3E7FDD"/>
<path d="M12.9946 34.0347C12.6644 34.0449 11.4444 34.1034 10.1025 34.4289L10.6635 45.74C11.6445 46.2121 12.6644 46.616 13.7167 46.9467L13.07 33.9094C13.0437 33.9487 13.0183 33.99 12.9946 34.0347Z" fill="#72AAFC"/>
<path d="M9.79932 28.302L10.1103 34.5715C11.6846 34.185 13.0838 34.1733 13.0838 34.1733L12.73 27.0394C12.043 27.2626 11.3724 27.5758 10.7135 27.8669L9.79932 28.302Z" fill="#548BED"/>
<path d="M37.6366 40.4454C37.1821 38.5667 36.0232 37.4816 35.0859 36.889C34.4999 36.5185 33.7358 36.9355 33.7358 37.6289V43.8809C35.163 42.8853 36.4715 41.7315 37.6366 40.4454Z" fill="#3E7FDD"/>
<path d="M29.9158 12.5623C29.5312 12.2098 28.6712 12.3885 28.3399 12.6043C28.4124 13.0563 28.4166 13.5186 28.3539 13.9752L27.9629 16.8226C27.9629 17.0521 27.9557 17.2773 27.9424 17.4985C28.8957 17.786 29.463 16.9302 29.5428 16.3429C29.5771 16.09 29.6333 15.8408 29.7112 15.5976C29.9649 14.8058 30.8796 13.4455 29.9158 12.5623Z" fill="#CC8C60"/>
<path d="M11.3057 12.5623C11.6903 12.2098 12.5503 12.3885 12.8816 12.6043C12.8091 13.0563 12.8049 13.5186 12.8677 13.9752L13.2586 16.8226C13.2586 17.0521 13.2658 17.2773 13.2791 17.4985C12.3258 17.786 11.7585 16.9302 11.6787 16.3429C11.6444 16.09 11.5882 15.8408 11.5103 15.5976C11.2567 14.8058 10.3419 13.4455 11.3057 12.5623Z" fill="#BA7D54"/>
<path d="M28.1983 11.7246C28.1102 11.495 27.9993 11.2625 27.8596 11.0432C27.6228 10.6718 27.5187 10.2325 27.5504 9.79449C27.6417 8.53467 27.5927 6.07064 25.9388 5.32646C24.5338 4.69421 22.8102 5.0603 21.711 5.42574C20.9972 5.66311 20.2236 5.66311 19.5098 5.42574C19.4529 5.4068 19.3939 5.38796 19.3338 5.36911C17.995 6.29752 17.9615 8.53617 18.0482 9.71639C18.0807 10.1577 17.972 10.5991 17.7335 10.9733C17.5961 11.1889 17.4861 11.4172 17.3982 11.6431C17.1129 12.3761 17.0297 13.1709 17.1366 13.9492L17.5336 16.8405C17.5336 20.9972 19.7525 23.8226 21.64 25.2883C21.9578 25.535 22.3006 25.743 22.6599 25.9149C23.142 25.7237 23.5978 25.4655 24.012 25.1438C25.8711 23.7 28.0568 20.9171 28.0568 16.8226L28.4477 13.9753C28.5518 13.2162 28.4728 12.4409 28.1983 11.7246Z" fill="#DBA783"/>
<path d="M21.6579 25.1437C19.7988 23.7 17.6132 20.917 17.6132 16.8225L17.2222 13.9745C17.1169 13.2079 17.1988 12.4249 17.4799 11.703C17.5665 11.4805 17.6748 11.2557 17.8103 11.0432C18.0452 10.6746 18.1522 10.2398 18.1202 9.80517C18.0318 8.60199 18.0699 6.28186 19.5294 5.43164C19.523 5.42958 19.5165 5.4278 19.5101 5.42564C18.4109 5.06011 16.6874 4.69411 15.2824 5.32636C13.6238 6.07261 13.5793 8.54864 13.6717 9.80517C13.7036 10.2398 13.5966 10.6746 13.3616 11.0432C13.2263 11.2557 13.118 11.4805 13.0313 11.703C12.7503 12.4249 12.6684 13.2079 12.7736 13.9745L13.1647 16.8225C13.1647 20.917 15.3504 23.7 17.2094 25.1437C18.1798 25.8973 19.3774 26.3066 20.6108 26.3066C21.3818 26.3066 22.1388 26.1466 22.8351 25.8426C22.4174 25.6604 22.0217 25.4263 21.6579 25.1437Z" fill="#CC8C60"/>
<path d="M28.003 17.9117C27.6938 18.6748 27.0512 19.5928 25.8733 20.1037C25.6559 18.8073 24.7206 17.5093 23.4718 17.2261L21.5632 16.6654C21.2314 16.5679 20.8991 16.7382 20.7655 17.0272C20.7412 17.08 20.6674 17.08 20.643 17.0272C20.5094 16.7382 20.1772 16.568 19.8454 16.6654L17.9367 17.2261C16.6633 17.5149 15.7152 18.859 15.5226 20.1805C14.2197 19.6891 13.5415 18.7146 13.2163 17.9117V17.9121C13.2163 18.2752 13.2502 18.6381 13.3168 18.995C14.1276 23.3406 16.6548 25.03 18.5651 26.0036C19.8442 26.6554 21.3612 26.6559 22.6404 26.0046C24.5505 25.0321 27.09 23.3425 27.9022 18.9961C27.9691 18.6387 28.003 18.2753 28.003 17.9117ZM22.8296 22.8245C22.0099 23.1142 21.1153 22.5986 21.0103 21.7453C21.009 21.7342 21.0077 21.7231 21.0065 21.7119C20.9892 21.5527 20.856 21.4305 20.6939 21.4305C20.5317 21.4305 20.3985 21.5528 20.3812 21.7119C20.38 21.7231 20.3787 21.7342 20.3774 21.7453C20.2724 22.5986 19.3778 23.1142 18.5581 22.8245C17.4302 22.426 16.945 21.6712 16.7364 21.1178C17.3475 20.2819 18.2473 19.6821 19.283 19.4535L19.6239 19.3783C20.1208 19.2686 20.5051 18.7835 20.646 18.2667C20.6621 18.2073 20.7465 18.2073 20.7627 18.2667C20.9036 18.7835 21.2878 19.2686 21.7848 19.3783L22.1257 19.4535C23.1056 19.6698 23.9642 20.2182 24.5715 20.9845C24.4456 21.5434 24.0514 22.3928 22.8296 22.8245Z" fill="#56415E"/>
<path d="M19.4062 22.8515C19.1387 22.9267 18.8441 22.9256 18.558 22.8244C17.4301 22.4259 16.9448 21.6711 16.7363 21.1177C17.0826 20.6442 17.5215 20.2467 18.0252 19.9492C16.6072 19.0193 17.4642 17.5645 17.6221 17.3215C16.5091 17.7418 15.699 18.9703 15.5226 20.1803C14.2197 19.6889 13.5415 18.7144 13.2163 17.9115V17.9119C13.2163 18.275 13.2502 18.6379 13.3168 18.9948C14.1276 23.3404 16.6548 25.0298 18.5651 26.0034C19.5116 26.4857 20.5882 26.6104 21.6027 26.3792C18.9298 25.6567 19.3005 23.327 19.4062 22.8515Z" fill="#45304C"/>
</svg>
