<svg width="80" height="80" viewBox="0 0 80 80" fill="none" xmlns="http://www.w3.org/2000/svg">
<path d="M8.88867 11.1111C8.88867 11.1111 8.88867 8.88889 11.1109 8.88889H24.4442C24.4442 8.88889 26.6665 8.88889 26.6665 11.1111V15.5556H8.88867V11.1111Z" fill="#4DBCFB"/>
<path d="M0 22.2222C0 22.2222 0 13.3333 8.88889 13.3333H71.1111C71.1111 13.3333 80 13.3333 80 22.2222V62.2222C80 62.2222 80 71.1111 71.1111 71.1111H8.88889C8.88889 71.1111 0 71.1111 0 62.2222V22.2222Z" fill="#454545"/>
<path d="M46.6666 64.4445C58.9396 64.4445 68.8888 54.4952 68.8888 42.2222C68.8888 29.9492 58.9396 20 46.6666 20C34.3936 20 24.4443 29.9492 24.4443 42.2222C24.4443 54.4952 34.3936 64.4445 46.6666 64.4445Z" fill="#4A8AF8"/>
<path d="M46.6665 60C56.4848 60 64.4442 52.0406 64.4442 42.2222C64.4442 32.4038 56.4848 24.4444 46.6665 24.4444C36.8481 24.4444 28.8887 32.4038 28.8887 42.2222C28.8887 52.0406 36.8481 60 46.6665 60Z" fill="#454545"/>
<path d="M46.6668 53.3333C52.8033 53.3333 57.7779 48.3587 57.7779 42.2222C57.7779 36.0857 52.8033 31.1111 46.6668 31.1111C40.5303 31.1111 35.5557 36.0857 35.5557 42.2222C35.5557 48.3587 40.5303 53.3333 46.6668 53.3333Z" fill="#4DBCFB"/>
<path d="M72.222 24.4444C74.063 24.4444 75.5553 22.9521 75.5553 21.1111C75.5553 19.2702 74.063 17.7778 72.222 17.7778C70.3811 17.7778 68.8887 19.2702 68.8887 21.1111C68.8887 22.9521 70.3811 24.4444 72.222 24.4444Z" fill="white"/>
<path d="M26.6665 21.1111C26.6665 21.9952 26.3153 22.843 25.6901 23.4681C25.065 24.0932 24.2172 24.4444 23.3331 24.4444H12.222C11.338 24.4444 10.4901 24.0932 9.86498 23.4681C9.23986 22.843 8.88867 21.9952 8.88867 21.1111C8.88867 20.227 9.23986 19.3792 9.86498 18.7541C10.4901 18.129 11.338 17.7778 12.222 17.7778H23.3331C24.2172 17.7778 25.065 18.129 25.6901 18.7541C26.3153 19.3792 26.6665 20.227 26.6665 21.1111Z" fill="white"/>
</svg>
