<svg width="24" height="24" viewBox="0 0 24 24" fill="none" xmlns="http://www.w3.org/2000/svg">
<path d="M1 11.974C1 18.0283 5.93701 22.948 12 22.948C18.063 22.948 23 18.0283 23 11.974C23 5.91968 18.063 1 12 1C5.93701 1 1 5.91968 1 11.974ZM21.7874 11.974C21.7874 17.3528 17.3961 21.7354 12 21.7354C6.60394 21.7354 2.2126 17.3528 2.2126 11.974C2.2126 6.59528 6.60394 2.2126 12 2.2126C17.3961 2.2126 21.7874 6.59528 21.7874 11.974Z" fill="#909AB7"/>
<path d="M8.38822 5.82437C8.05042 5.82437 7.78192 6.09288 7.78192 6.43067C7.78192 6.76847 8.05042 7.03697 8.38822 7.03697H10.4583C11.6276 7.03697 12.6063 7.84248 12.8748 8.92516H8.38822C8.05042 8.92516 7.78192 9.19366 7.78192 9.53146C7.78192 9.86925 8.05042 10.1378 8.38822 10.1378H12.8748C12.6063 11.2204 11.6189 12.0259 10.4583 12.0259H8.38822C8.13704 12.0259 7.9205 12.1732 7.82523 12.407C7.72995 12.6409 7.79058 12.9008 7.97247 13.074L13.1433 17.959C13.2646 18.0716 13.4118 18.1236 13.5591 18.1236C13.7237 18.1236 13.8796 18.063 14.0008 17.933C14.2347 17.6905 14.2174 17.3094 13.9748 17.0756L9.91263 13.2385H10.4583C12.2945 13.2385 13.8276 11.896 14.1134 10.1378H15.6118C15.9496 10.1378 16.2181 9.86925 16.2181 9.53146C16.2181 9.19366 15.9496 8.92516 15.6118 8.92516H14.1134C13.9922 8.20626 13.6717 7.55665 13.1953 7.03697H15.6118C15.9496 7.03697 16.2181 6.76847 16.2181 6.43067C16.2181 6.09288 15.9496 5.82437 15.6118 5.82437H10.4496H8.38822Z" fill="#909AB7"/>
</svg>
