<svg width="24" height="24" viewBox="0 0 24 24" fill="none" xmlns="http://www.w3.org/2000/svg">
<path d="M20.2033 5.28311L18.7181 3.79794C18.4653 3.54497 18.1651 3.3443 17.8346 3.20738C17.5042 3.07047 17.15 3 16.7924 3C16.4347 3 16.0805 3.07047 15.7501 3.20738C15.4197 3.3443 15.1195 3.54497 14.8666 3.79794L3.78479 14.8773C3.67111 14.997 3.60057 15.1511 3.58429 15.3154L3.00507 20.1669C2.99279 20.2715 3.00287 20.3774 3.03465 20.4778C3.06643 20.5781 3.11918 20.6706 3.1894 20.749C3.25962 20.8274 3.3457 20.89 3.44195 20.9326C3.53819 20.9752 3.6424 20.9969 3.74766 20.9962H3.83429L8.68336 20.4145C8.84918 20.3948 9.00353 20.3198 9.12148 20.2016L20.2033 9.13216C20.7134 8.6216 21 7.92938 21 7.20764C21 6.48589 20.7134 5.79367 20.2033 5.28311ZM8.25513 18.9813L4.58925 19.4095L5.01747 15.7436L13.3072 7.45393L16.5448 10.6916L8.25513 18.9813ZM19.1464 8.09007L17.5944 9.6396L14.3592 6.40441L15.9161 4.84746C16.1482 4.61544 16.4629 4.4851 16.7911 4.4851C17.1193 4.4851 17.434 4.61544 17.6661 4.84746L19.1513 6.33263C19.3837 6.56439 19.5144 6.87895 19.5149 7.20712C19.5154 7.5353 19.3855 7.85023 19.1538 8.08265L19.1464 8.09007Z" fill="#4A8AF8"/>
</svg>
