<svg width="28" height="28" viewBox="0 0 28 28" fill="none" xmlns="http://www.w3.org/2000/svg">
<path d="M10.9975 13.2559C9.37755 14.3239 8.39355 16.1179 8.39355 18.0979C8.39355 19.0369 8.62155 19.6999 9.09255 20.1289C9.85455 20.8219 11.0095 20.7139 12.3445 20.5879C12.9355 20.5339 13.5505 20.4739 14.1955 20.4739C14.8405 20.4739 15.4525 20.5309 16.0465 20.5879C16.5535 20.6359 17.0305 20.6809 17.4745 20.6809C18.2005 20.6809 18.8275 20.5609 19.3015 20.1289C19.7725 19.6999 20.0005 19.0369 20.0005 18.0979C20.0005 16.1179 19.0195 14.3239 17.3965 13.2559C17.7955 12.6499 18.0295 11.9269 18.0295 11.1499C18.0295 9.03492 16.3105 7.31592 14.1955 7.31592C12.0805 7.31592 10.3615 9.03492 10.3615 11.1499C10.3615 11.9269 10.5955 12.6499 10.9945 13.2559H10.9975ZM14.1985 8.52192C15.6475 8.52192 16.8265 9.70092 16.8265 11.1499C16.8265 12.5989 15.6475 13.7779 14.1985 13.7779C12.7495 13.7779 11.5705 12.5989 11.5705 11.1499C11.5705 9.70092 12.7495 8.52192 14.1985 8.52192ZM11.8285 14.1559C12.4825 14.6719 13.3045 14.9839 14.1985 14.9839C15.0925 14.9839 15.9175 14.6719 16.5685 14.1559C17.9515 14.9869 18.7945 16.4629 18.7945 18.0979C18.7945 18.6709 18.6925 19.0549 18.4885 19.2379C18.1195 19.5739 17.2105 19.4869 16.1575 19.3879C15.5665 19.3339 14.8975 19.2709 14.1955 19.2709C13.4935 19.2709 12.8245 19.3339 12.2335 19.3879C11.1805 19.4869 10.2715 19.5709 9.90255 19.2379C9.69855 19.0519 9.59655 18.6679 9.59655 18.0979C9.59655 16.4629 10.4425 14.9869 11.8225 14.1559H11.8285Z" fill="#4A8AF8"/>
<path d="M6.56649 26H21.8304C23.7984 26 25.3974 24.398 25.3974 22.433V5.567C25.3974 3.599 23.7954 2 21.8304 2H6.56649C4.5985 2 2.99951 3.602 2.99951 5.567V22.43C2.99951 24.398 4.6015 25.997 6.56649 25.997V26ZM4.11251 5.567C4.11251 4.214 5.2135 3.113 6.56649 3.113H21.8304C23.1834 3.113 24.2844 4.214 24.2844 5.567V22.43C24.2844 23.783 23.1834 24.884 21.8304 24.884H6.56649C5.2135 24.884 4.11251 23.783 4.11251 22.43V5.567Z" fill="#4A8AF8"/>
</svg>
