<svg width="18" height="18" viewBox="0 0 18 18" fill="none" xmlns="http://www.w3.org/2000/svg">
<path d="M15.5484 12.1613V11.4839V4.25806C15.5484 3.01613 14.5323 2 13.2903 2H4.25806C3.01613 2 2 3.01613 2 4.25806V11.4839V12.1613V13.7419C2 14.9839 3.01613 16 4.25806 16H13.2903C14.5323 16 15.5484 14.9839 15.5484 13.7419V12.1613ZM4.25806 2.90323H13.2903C14.0355 2.90323 14.6452 3.5129 14.6452 4.25806V8.54839H2.90323V4.25806C2.90323 3.5129 3.5129 2.90323 4.25806 2.90323ZM14.6452 13.7419C14.6452 14.4871 14.0355 15.0968 13.2903 15.0968H4.25806C3.5129 15.0968 2.90323 14.4871 2.90323 13.7419V12.1613V11.4839V9.45161H14.6452V11.4839V12.1613V13.7419Z" fill="#4A8AF8"/>
<path d="M7.41934 6.74173H10.129C10.6258 6.74173 11.0322 6.33528 11.0322 5.8385V5.16109C11.0322 4.9127 10.829 4.70947 10.5806 4.70947C10.3322 4.70947 10.129 4.9127 10.129 5.16109V5.8385H7.41934V5.16109C7.41934 4.9127 7.21611 4.70947 6.96773 4.70947C6.71934 4.70947 6.51611 4.9127 6.51611 5.16109V5.8385C6.51611 6.33528 6.92256 6.74173 7.41934 6.74173Z" fill="#4A8AF8"/>
<path d="M10.5806 11.0322C10.3322 11.0322 10.129 11.2355 10.129 11.4838V12.1613H7.41934V11.4838C7.41934 11.2355 7.21611 11.0322 6.96773 11.0322C6.71934 11.0322 6.51611 11.2355 6.51611 11.4838V12.1613C6.51611 12.658 6.92256 13.0645 7.41934 13.0645H10.129C10.6258 13.0645 11.0322 12.658 11.0322 12.1613V11.4838C11.0322 11.2355 10.829 11.0322 10.5806 11.0322Z" fill="#4A8AF8"/>
</svg>
