<svg width="28" height="28" viewBox="0 0 28 28" fill="none" xmlns="http://www.w3.org/2000/svg">
<g clip-path="url(#clip0_1094_4186)">
<path d="M22.3357 17.3289C22.3612 17.3053 22.3865 17.2813 22.4115 17.2567C23.0166 16.6616 23.3499 15.8665 23.3499 15.0178V13.4167C23.3499 11.8084 22.0415 10.5 20.4332 10.5H18.7758C17.835 10.5 17.0696 11.2655 17.0696 12.2062V14.9757C17.0696 15.7865 17.375 16.5313 17.8754 17.0962C17.4756 17.2203 17.1124 17.451 16.8277 17.7693L14.6878 19.8512C14.6767 19.8622 14.6659 19.8735 14.6556 19.8853C14.5223 20.0377 14.3297 20.1251 14.1271 20.1251C13.9246 20.1251 13.7321 20.0377 13.5987 19.8853C13.5829 19.8672 13.566 19.8501 13.5481 19.8342L11.2424 17.7764C10.9402 17.4465 10.524 17.2456 10.0799 17.2131C10.3678 16.6269 10.5295 15.9682 10.5296 15.2723L10.5297 13.9176C10.5297 13.0992 10.2111 12.3297 9.63233 11.7509C9.05361 11.1721 8.28419 10.8534 7.46566 10.8534H7.40149C5.6631 10.8534 4.24887 12.262 4.24887 13.9935C4.24887 15.4402 3.60096 16.7883 2.47122 17.692L1.9832 18.0825C1.67957 18.3254 1.56652 18.7195 1.69521 19.0864C1.82395 19.4534 2.15837 19.6905 2.54722 19.6905H3.75356C3.6625 19.8949 3.58322 20.1083 3.51591 20.3299L1.94738 25.494C1.74992 26.144 1.86397 26.8672 2.24512 27.3812C2.53684 27.7744 2.96022 28 3.407 28H10.732C11.1787 28 11.6021 27.7744 11.8937 27.3811C12.2748 26.8671 12.3889 26.144 12.1915 25.4939L10.775 20.8305C10.6814 20.5222 10.3555 20.3483 10.0473 20.4419C9.73908 20.5355 9.56501 20.8613 9.6587 21.1696L11.0751 25.833C11.1783 26.1728 11.0899 26.5064 10.9565 26.6863C10.9158 26.7412 10.8325 26.8334 10.732 26.8334H3.407C3.30649 26.8334 3.22319 26.7413 3.18247 26.6863C3.04907 26.5064 2.96063 26.1728 3.06388 25.833L4.63241 20.6689C4.74108 20.3111 4.88826 19.9831 5.07113 19.6905H6.11104C7.33925 19.6905 8.45196 19.1868 9.25357 18.3751H9.95194C10.1202 18.3751 10.2802 18.4477 10.391 18.5743C10.4068 18.5923 10.4237 18.6094 10.4415 18.6254L12.7469 20.6828C13.1006 21.0703 13.6013 21.2917 14.1271 21.2917C14.6576 21.2917 15.1625 21.0664 15.5166 20.6726L17.6568 18.5904C17.6679 18.5795 17.6787 18.5681 17.689 18.5564C17.9106 18.3032 18.2306 18.1579 18.567 18.1579H20.2099C20.21 18.1579 20.2105 18.1579 20.2108 18.1579H21.1269C21.4662 18.1579 21.7769 18.2981 22.0015 18.5525C22.2261 18.807 22.3266 19.1325 22.284 19.4742L21.939 22.4383L20.3179 23.2489L18.7908 22.4853L18.5709 20.6393C18.5328 20.3194 18.2424 20.0909 17.9227 20.1291C17.6028 20.1672 17.3744 20.4574 17.4125 20.7773L18.151 26.9781C18.2239 27.5606 18.7216 28 19.3087 28H21.4276C22.0148 28 22.5125 27.5606 22.5858 26.9731L23.4422 19.614C23.5252 18.9502 23.3188 18.2819 22.8761 17.7804C22.7183 17.6016 22.5357 17.45 22.3357 17.3289ZM9.36295 15.2722C9.36277 17.0651 7.90392 18.5237 6.11104 18.5237H6.00412C6.80935 17.8806 7.44664 17.0018 7.81041 15.9646C7.91704 15.6606 7.75703 15.3277 7.453 15.221C7.14932 15.1146 6.81617 15.2744 6.70948 15.5784C6.16646 17.1266 4.86376 18.2282 3.35753 18.4726C4.66822 17.3491 5.41565 15.7282 5.41565 13.9934C5.41565 12.9053 6.30652 12.0199 7.40161 12.0199H7.46577C7.97257 12.0199 8.44904 12.2173 8.80744 12.5757C9.16584 12.9341 9.36312 13.4107 9.36307 13.9174L9.36295 15.2722ZM22.1833 15.0178C22.1832 15.5512 21.9737 16.0509 21.5934 16.4249C21.2131 16.7989 20.7087 16.9989 20.1757 16.991C19.1063 16.9731 18.2363 16.0691 18.2363 14.9757V14.8133C18.8895 15.2098 19.6724 15.4258 20.471 15.4258C20.7931 15.4258 21.0543 15.1647 21.0543 14.8425C21.0543 14.5203 20.7931 14.2592 20.471 14.2592C19.8149 14.2592 19.1782 14.0637 18.6784 13.7088C18.4016 13.5122 18.2363 13.185 18.2363 12.8333V12.2062C18.2363 11.9087 18.4783 11.6667 18.7759 11.6667H20.4333C21.3982 11.6667 22.1833 12.4517 22.1833 13.4167V15.0178ZM21.4277 26.8333L19.3092 26.8367L18.9561 23.8723L20.0571 24.4228C20.2212 24.5049 20.4146 24.5049 20.5788 24.4228L21.7779 23.8233L21.4277 26.8333Z" fill="#FB1C5F"/>
<path d="M20.1923 0C18.8213 0 17.4726 0.361725 16.292 1.04603C15.404 1.56077 14.6238 2.24869 14 3.06203C13.3762 2.24869 12.596 1.56071 11.708 1.04603C10.5273 0.361725 9.17863 0 7.80768 0C3.50251 0 0 3.51307 0 7.83125C0 9.60697 0.649542 11.3142 1.82893 12.6382C1.94419 12.7676 2.10408 12.8336 2.26473 12.8336C2.40275 12.8336 2.54129 12.7849 2.65248 12.6858C2.89304 12.4715 2.91433 12.1028 2.70002 11.8622C1.71121 10.7521 1.16667 9.3205 1.16667 7.83125C1.16667 4.15637 4.14581 1.16667 7.80774 1.16667C10.1574 1.16667 12.2853 2.3744 13.4999 4.39734C13.6053 4.57298 13.7952 4.68043 14 4.68043C14.2048 4.68043 14.3946 4.57298 14.5001 4.39734C15.7147 2.3744 17.8426 1.16667 20.1923 1.16667C23.8542 1.16667 26.8333 4.15637 26.8333 7.83125C26.8333 9.32044 26.2888 10.7519 25.3001 11.862C25.0858 12.1026 25.1071 12.4713 25.3477 12.6856C25.5883 12.8999 25.9571 12.8786 26.1713 12.638C27.3506 11.314 28 9.60686 28 7.83125C28 3.51307 24.4975 0 20.1923 0Z" fill="#FB1C5F"/>
</g>
<defs>
<clipPath id="clip0_1094_4186">
<rect width="28" height="28" fill="white"/>
</clipPath>
</defs>
</svg>
