<svg width="40" height="40" viewBox="0 0 40 40" fill="none" xmlns="http://www.w3.org/2000/svg">
<g clip-path="url(#clip0_1094_857)">
<path d="M19.5108 2.86352V2.55206C19.5108 2.55206 19.5027 2.6656 19.5108 2.86352Z" fill="#4A8AF8"/>
<path d="M19.5006 2.55206V2.86352C19.5087 2.6656 19.5006 2.55206 19.5006 2.55206Z" fill="#4A8AF8"/>
<path d="M19.1819 3.53943C18.1346 8.84861 14.6704 17.2481 2.79175 20.3196C14.1351 23.2623 17.7997 31.7613 19.025 37.1004C20.0737 31.7885 23.3901 23.3855 35.2869 20.3196C23.9251 17.3685 20.4079 8.87436 19.1819 3.53943Z" fill="#4A8AF8"/>
<path d="M33.0527 16.6732C33.5006 14.4042 34.9176 10.8135 40.001 9.50293C35.1459 8.24176 33.6435 4.61275 33.1193 2.33331C32.6718 4.60162 31.1917 8.19164 26.116 9.50293C30.9631 10.7606 32.5293 14.3924 33.0527 16.6732Z" fill="#4A8AF8"/>
<path d="M8.51606 27.176C8.27245 28.4114 7.466 30.3665 4.70056 31.082C7.34123 31.7669 8.19473 33.7457 8.47981 34.9881C8.72412 33.7512 9.49572 31.7948 12.2657 31.082C9.62049 30.3951 8.80149 28.4177 8.51606 27.176Z" fill="#4A8AF8"/>
<path d="M33.5272 27.8227L33.0588 25.7855L32.6542 27.8345C32.4015 29.118 31.5905 30.778 29.1617 31.4058L27.5586 31.8199L29.161 32.2354C31.4786 32.8375 32.322 34.5169 32.6207 35.8206L33.0888 37.8592L33.4937 35.808C33.8639 33.9344 35.0286 32.7324 36.9565 32.2361L38.5625 31.8227L36.9576 31.4065C35.1185 30.929 33.9642 29.7221 33.5272 27.8227ZM33.0354 34.329C32.6026 33.4298 31.8509 32.4567 30.5485 31.8255C31.9185 31.19 32.6793 30.2114 33.1013 29.3108C33.5471 30.2601 34.3005 31.2039 35.5677 31.815C34.402 32.3565 33.5471 33.2056 33.0354 34.329Z" fill="#4A8AF8"/>
<path d="M6.13514 14.6096L6.60319 16.6475L7.00781 14.597C7.49224 12.1422 9.01837 10.5692 11.544 9.91845L13.15 9.50433L11.5447 9.08811C8.54335 8.30858 7.44449 6.10709 7.05172 4.39769L6.58297 2.35907L6.1787 4.40952C5.84727 6.09039 4.785 8.26543 1.60414 9.08742L0.00134277 9.50224L1.6038 9.91776C4.63933 10.7049 5.74341 12.903 6.13514 14.6096ZM6.62793 5.97067C7.1974 7.31259 8.23038 8.68025 10.0925 9.49806C8.40882 10.2108 7.2075 11.4086 6.54742 13.0317C5.99991 11.7775 4.9746 10.3528 3.05395 9.50781C5.07078 8.65171 6.10133 7.22489 6.62793 5.97067Z" fill="#4A8AF8"/>
</g>
<defs>
<clipPath id="clip0_1094_857">
<rect width="40" height="40" fill="white"/>
</clipPath>
</defs>
</svg>
