<svg width="24" height="24" viewBox="0 0 24 24" fill="none" xmlns="http://www.w3.org/2000/svg">
<g clip-path="url(#clip0_1094_8185)">
<path d="M22.1293 17.7054L20.6639 15.5972C20.4638 15.3106 20.3562 14.9697 20.3553 14.6202V8.56989C20.3553 6.29702 19.4525 4.11723 17.8453 2.51006C16.2381 0.902897 14.0583 0 11.7855 0C9.51258 0 7.33279 0.902897 5.72563 2.51006C4.11846 4.11723 3.21556 6.29702 3.21556 8.56989V14.6202C3.21473 14.9697 3.10708 15.3106 2.90704 15.5972L1.44159 17.7054C1.2197 17.9513 1.07379 18.2561 1.0215 18.5832C0.96921 18.9102 1.01278 19.2454 1.14695 19.5481C1.28112 19.8509 1.50014 20.1084 1.77752 20.2893C2.0549 20.4703 2.37876 20.567 2.70994 20.5677H7.58621C7.7829 21.5364 8.30842 22.4073 9.07372 23.0328C9.83902 23.6583 10.797 24 11.7855 24C12.7739 24 13.7319 23.6583 14.4972 23.0328C15.2625 22.4073 15.788 21.5364 15.9847 20.5677H20.861C21.1922 20.567 21.516 20.4703 21.7934 20.2893C22.0708 20.1084 22.2898 19.8509 22.424 19.5481C22.5581 19.2454 22.6017 18.9102 22.5494 18.5832C22.4971 18.2561 22.3512 17.9513 22.1293 17.7054ZM11.7855 22.2817C11.255 22.2802 10.738 22.1147 10.3054 21.8079C9.87272 21.501 9.54555 21.0678 9.36875 20.5677H14.2022C14.0254 21.0678 13.6982 21.501 13.2655 21.8079C12.8329 22.1147 12.3159 22.2802 11.7855 22.2817ZM2.70994 18.8538C2.74867 18.8178 2.78318 18.7776 2.81278 18.7338L4.31251 16.5742C4.71259 16.001 4.92788 15.3192 4.92954 14.6202V8.56989C4.92954 6.75159 5.65186 5.00776 6.93759 3.72203C8.22332 2.4363 9.96715 1.71398 11.7855 1.71398C13.6038 1.71398 15.3476 2.4363 16.6333 3.72203C17.9191 5.00776 18.6414 6.75159 18.6414 8.56989V14.6202C18.643 15.3192 18.8583 16.001 19.2584 16.5742L20.7581 18.7338C20.7877 18.7776 20.8222 18.8178 20.861 18.8538H2.70994Z" fill="#333333"/>
<circle cx="19" cy="4" r="4" fill="#F03636"/>
</g>
<defs>
<clipPath id="clip0_1094_8185">
<rect width="24" height="24" fill="white"/>
</clipPath>
</defs>
</svg>
