<svg width="28" height="28" viewBox="0 0 28 28" fill="none" xmlns="http://www.w3.org/2000/svg">
<path d="M27.8439 9.89822C27.8439 7.19802 25.6549 5.00905 22.9547 5.00905C21.267 5.00905 19.7791 5.86419 18.9004 7.16477C18.7982 3.73412 15.9853 0.984375 12.5299 0.984375C9.00982 0.984375 6.15618 3.83797 6.15618 7.35809C6.15618 9.99327 7.75546 12.2548 10.0363 13.2254C10.0322 13.2476 10.029 13.27 10.0254 13.2922H7.90448C7.25211 13.2922 6.72323 13.8211 6.72323 14.4735V17.585L1.92265 15.2496C1.11426 14.8563 0.0883789 15.331 0.0883789 16.0984V23.7318C0.0883789 24.4991 1.11432 24.9739 1.92265 24.5806L6.72323 22.2452V25.3567C6.72323 26.009 7.25211 26.5379 7.90448 26.5379H24.1683C24.8207 26.5379 25.3496 26.009 25.3496 25.3567V14.4735C25.3496 14.3727 25.3356 14.2755 25.3119 14.1822C26.8212 13.3499 27.8439 11.7437 27.8439 9.89822Z" fill="#333333"/>
<path d="M5.25683 16.8715L3.43689 15.9862V23.844L5.25683 22.9586V16.8715ZM17.4192 7.35811C17.4192 10.0583 15.2302 12.2473 12.53 12.2473C9.8298 12.2473 7.64083 10.0583 7.64083 7.35811C7.64083 4.65791 9.8298 2.46893 12.53 2.46893C15.2302 2.46893 17.4192 4.65786 17.4192 7.35811ZM22.9548 6.14782C20.8835 6.14782 19.2044 7.82694 19.2044 9.89823C19.2044 11.9695 20.8835 13.6486 22.9548 13.6486C25.0261 13.6486 26.7052 11.9695 26.7052 9.89823C26.7052 7.82694 25.0261 6.14782 22.9548 6.14782Z" fill="#4A8AF8"/>
<path d="M15.0701 7.35809C15.0701 8.76099 13.9328 9.89821 12.53 9.89821C11.1271 9.89821 9.98987 8.76093 9.98987 7.35809C9.98987 5.95524 11.1271 4.81796 12.53 4.81796C13.9328 4.81796 15.0701 5.95519 15.0701 7.35809ZM22.9547 7.35809C21.5518 7.35809 20.4146 8.49537 20.4146 9.89821C20.4146 11.3011 21.5519 12.4383 22.9547 12.4383C24.3576 12.4383 25.4949 11.3011 25.4949 9.89821C25.4949 8.49537 24.3576 7.35809 22.9547 7.35809ZM20.783 24.8087H11.3268C10.9826 24.8087 10.7035 24.5296 10.7035 24.1854V21.7264C10.7035 21.3821 10.9826 21.103 11.3268 21.103H16.0549H20.783C21.1273 21.103 21.4064 21.3821 21.4064 21.7264V24.1854C21.4064 24.5296 21.1273 24.8087 20.783 24.8087Z" fill="white"/>
<path d="M13.5548 24.1526C14.2157 24.1526 14.7515 23.6168 14.7515 22.9559C14.7515 22.2949 14.2157 21.7592 13.5548 21.7592C12.8938 21.7592 12.358 22.2949 12.358 22.9559C12.358 23.6168 12.8938 24.1526 13.5548 24.1526Z" fill="#454545"/>
</svg>
