<svg width="28" height="28" viewBox="0 0 28 28" fill="none" xmlns="http://www.w3.org/2000/svg">
<path d="M24.5705 23.6009C24.5107 22.0622 23.2698 20.8028 21.7321 20.7218C20.8598 20.6759 20.0637 21.0026 19.4881 21.5567C19.271 21.7657 18.9139 21.7102 18.7633 21.4493L18.0005 20.128L16.9105 20.7786L17.0144 21.8359L18.9418 25.1739C19.4538 26.098 20.4386 26.7237 21.5698 26.7237C23.2681 26.7237 24.6371 25.314 24.5705 23.6009ZM21.5698 25.0053C20.8603 25.0053 20.2851 24.4301 20.2851 23.7206C20.2851 23.0111 20.8603 22.4359 21.5698 22.4359C22.2793 22.4359 22.8545 23.0111 22.8545 23.7206C22.8545 24.4301 22.2793 25.0053 21.5698 25.0053Z" fill="#333333"/>
<path d="M15.0419 18.4202L16.0281 20.1283L17.997 17.6043L15.0419 18.4202Z" fill="#333333"/>
<path d="M26.9446 2H2.05547C2.02485 2 2 2.02485 2 2.05552V18.3647C2 18.3953 2.02485 18.4201 2.05547 18.4201H26.9445C26.9752 18.4201 27 18.3953 27 18.3647V10.2101V2.05552C27 2.02485 26.9752 2 26.9446 2ZM4.80254 17.1084C4.80254 17.1383 4.77828 17.1626 4.74835 17.1626H3.31177C3.28184 17.1626 3.25757 17.1383 3.25757 17.1084V15.6718C3.25757 15.6419 3.28184 15.6176 3.31177 15.6176H4.74835C4.77828 15.6176 4.80254 15.6419 4.80254 15.6718V17.1084ZM4.80254 14.0184C4.80254 14.0483 4.77828 14.0726 4.74835 14.0726H3.31177C3.28184 14.0726 3.25757 14.0483 3.25757 14.0184V12.5818C3.25757 12.5519 3.28184 12.5276 3.31177 12.5276H4.74835C4.77828 12.5276 4.80254 12.5519 4.80254 12.5818V14.0184ZM4.80254 10.9284C4.80254 10.9583 4.77828 10.9826 4.74835 10.9826H3.31177C3.28184 10.9826 3.25757 10.9583 3.25757 10.9284V9.49181C3.25757 9.46188 3.28184 9.43761 3.31177 9.43761H4.74835C4.77828 9.43761 4.80254 9.46188 4.80254 9.49181V10.9284ZM4.80254 7.83834C4.80254 7.86827 4.77828 7.89254 4.74835 7.89254H3.31177C3.28184 7.89254 3.25757 7.86827 3.25757 7.83834V6.40181C3.25757 6.37188 3.28184 6.34762 3.31177 6.34762H4.74835C4.77828 6.34762 4.80254 6.37188 4.80254 6.40181V7.83834ZM4.80254 4.74835C4.80254 4.77828 4.77828 4.80254 4.74835 4.80254H3.31177C3.28184 4.80254 3.25757 4.77828 3.25757 4.74835V3.31177C3.25757 3.28184 3.28184 3.25757 3.31177 3.25757H4.74835C4.77828 3.25757 4.80254 3.28184 4.80254 3.31177V4.74835ZM25.7425 17.1084C25.7425 17.1383 25.7182 17.1626 25.6883 17.1626H24.2517C24.2218 17.1626 24.1975 17.1383 24.1975 17.1084V15.6718C24.1975 15.6419 24.2218 15.6176 24.2517 15.6176H25.6883C25.7182 15.6176 25.7425 15.6419 25.7425 15.6718V17.1084ZM25.7425 14.0184C25.7425 14.0483 25.7182 14.0726 25.6883 14.0726H24.2517C24.2218 14.0726 24.1975 14.0483 24.1975 14.0184V12.5818C24.1975 12.5519 24.2218 12.5276 24.2517 12.5276H25.6883C25.7182 12.5276 25.7425 12.5519 25.7425 12.5818V14.0184ZM25.7425 10.9284C25.7425 10.9583 25.7182 10.9826 25.6883 10.9826H24.2517C24.2218 10.9826 24.1975 10.9583 24.1975 10.9284V9.49181C24.1975 9.46188 24.2218 9.43761 24.2517 9.43761H25.6883C25.7182 9.43761 25.7425 9.46188 25.7425 9.49181V10.9284ZM25.7425 7.83834C25.7425 7.86827 25.7182 7.89254 25.6883 7.89254H24.2517C24.2218 7.89254 24.1975 7.86827 24.1975 7.83834V6.40181C24.1975 6.37188 24.2218 6.34762 24.2517 6.34762H25.6883C25.7182 6.34762 25.7425 6.37188 25.7425 6.40181V7.83834ZM25.7425 4.74835C25.7425 4.77828 25.7182 4.80254 25.6883 4.80254H24.2517C24.2218 4.80254 24.1975 4.77828 24.1975 4.74835V3.31177C24.1975 3.28184 24.2218 3.25757 24.2517 3.25757H25.6883C25.7182 3.25757 25.7425 3.28184 25.7425 3.31177V4.74835Z" fill="#333333"/>
<path d="M26.9446 2H24.988V3.25757H25.6883C25.7182 3.25757 25.7425 3.28184 25.7425 3.31177V4.74835C25.7425 4.77828 25.7182 4.80254 25.6883 4.80254H24.988V6.34757H25.6883C25.7182 6.34757 25.7425 6.37183 25.7425 6.40177V7.83834C25.7425 7.86827 25.7182 7.89254 25.6883 7.89254H24.988V9.43756H25.6883C25.7182 9.43756 25.7425 9.46183 25.7425 9.49176V10.9283C25.7425 10.9583 25.7182 10.9825 25.6883 10.9825H24.988V12.5276H25.6883C25.7182 12.5276 25.7425 12.5518 25.7425 12.5818V14.0183C25.7425 14.0483 25.7182 14.0725 25.6883 14.0725H24.9876C24.98 14.6305 24.8375 15.1558 24.5913 15.6176H25.6883C25.7182 15.6176 25.7425 15.6418 25.7425 15.6718V17.1083C25.7425 17.1383 25.7182 17.1625 25.6883 17.1625H24.2517C24.2218 17.1625 24.1975 17.1383 24.1975 17.1083V16.2008C23.5759 16.9425 22.6426 17.414 21.5992 17.414H2V18.3646C2 18.3952 2.02485 18.4201 2.05547 18.4201H26.9445C26.9752 18.4201 27 18.3952 27 18.3646V2.05552C27 2.02485 26.9752 2 26.9446 2Z" fill="#4A8AF8"/>
<path d="M14.5001 15.1414C17.2237 15.1414 19.4315 12.9336 19.4315 10.21C19.4315 7.48653 17.2237 5.27869 14.5001 5.27869C11.7766 5.27869 9.56879 7.48653 9.56879 10.21C9.56879 12.9336 11.7766 15.1414 14.5001 15.1414Z" fill="#4A8AF8"/>
<path d="M15.6395 5.41101C16.727 6.3156 17.4193 7.67894 17.4193 9.20399C17.4193 11.9275 15.2114 14.1353 12.488 14.1353C12.0957 14.1353 11.7142 14.0895 11.3484 14.003C12.203 14.7139 13.3016 15.1414 14.5001 15.1414C17.2236 15.1414 19.4314 12.9335 19.4314 10.21C19.4314 7.87874 17.8136 5.92532 15.6395 5.41101Z" fill="#4A8AF8"/>
<path d="M17.0022 10.1646L12.8123 7.74551C12.7772 7.7253 12.7335 7.75059 12.7335 7.79102V12.6291C12.7335 12.6695 12.7773 12.6948 12.8123 12.6746L17.0022 10.2555C17.0372 10.2354 17.0372 10.1848 17.0022 10.1646Z" fill="white"/>
<path d="M20.2485 13.1095C20.1784 13.0692 20.0885 13.0955 20.0481 13.1656L15.2654 21.4494C15.1148 21.7103 14.7577 21.7657 14.5407 21.5568C13.965 21.0026 13.1689 20.6759 12.2966 20.7219C10.7589 20.8028 9.51802 22.0622 9.4582 23.6009C9.3916 25.3141 10.7606 26.7238 12.459 26.7238C13.5902 26.7238 14.575 26.098 15.0871 25.174L20.8221 15.2413C21.2532 14.4945 20.9966 13.5393 20.2485 13.1095ZM12.4589 25.0053C11.7494 25.0053 11.1743 24.4302 11.1743 23.7207C11.1743 23.0111 11.7495 22.436 12.4589 22.436C13.1685 22.436 13.7436 23.0112 13.7436 23.7207C13.7436 24.4302 13.1685 25.0053 12.4589 25.0053Z" fill="#666666"/>
<path d="M17.0143 20.9824C17.486 20.9824 17.8684 20.6 17.8684 20.1283C17.8684 19.6566 17.486 19.2742 17.0143 19.2742C16.5426 19.2742 16.1602 19.6566 16.1602 20.1283C16.1602 20.6 16.5426 20.9824 17.0143 20.9824Z" fill="white"/>
</svg>
