<svg width="16" height="16" viewBox="0 0 16 16" fill="none" xmlns="http://www.w3.org/2000/svg">
<g clip-path="url(#clip0_1094_6821)">
<path fill-rule="evenodd" clip-rule="evenodd" d="M4.94806 14.4154L1.15 15.6241L0 15.9901L1.61556 11.2183C1.34444 10.7199 1.12969 10.192 0.97675 9.64527C0.791125 8.9819 0.6975 8.29633 0.6975 7.60746C0.6975 5.58058 1.50388 3.65902 2.94156 2.2329C4.38388 0.802272 6.31981 0.00952148 8.351 0.00952148C10.3814 0.00952148 12.3164 0.803209 13.7575 2.23408C15.1946 3.66102 16 5.58308 16 7.6099C16 9.63652 15.1937 11.5579 13.7564 12.9838C12.3147 14.4143 10.3793 15.2073 8.34869 15.2073C7.7045 15.2073 7.06263 15.1278 6.43844 14.9681C5.92363 14.8365 5.42406 14.6509 4.94806 14.4154Z" fill="#54CC61"/>
<path fill-rule="evenodd" clip-rule="evenodd" d="M15.3909 7.60957C15.3909 5.67957 14.6028 3.93189 13.3287 2.66682C12.0547 1.40176 10.2952 0.619385 8.35214 0.619385C6.40739 0.619385 4.64695 1.40145 3.37245 2.66582C2.09727 3.9307 1.30883 5.67795 1.30883 7.60714C1.30883 8.25476 1.39839 8.88326 1.56552 9.48051C1.73158 10.0739 1.97452 10.6358 2.28245 11.1544L1.06258 14.7575L0.966141 15.0423L1.25264 14.9511L5.00464 13.7571C5.50133 14.0244 6.03283 14.2339 6.59083 14.3767C7.15295 14.5205 7.74214 14.5968 8.34983 14.5968C10.2937 14.5968 12.0536 13.8146 13.3278 12.5504C14.6026 11.2856 15.3909 9.53845 15.3909 7.60957Z" fill="#54CC61"/>
<path fill-rule="evenodd" clip-rule="evenodd" d="M7.20467 5.70132C7.1738 5.63914 6.99542 5.20814 6.83092 4.81101C6.7258 4.55707 6.62555 4.31495 6.60586 4.26807C6.42073 3.82657 6.21605 3.83989 6.05898 3.85007C6.04867 3.8507 6.0388 3.85139 6.02548 3.85139C5.97073 3.85139 5.91686 3.84801 5.86111 3.84445C5.79136 3.84001 5.71892 3.83545 5.65048 3.83545C5.55948 3.83545 5.43561 3.85432 5.30511 3.91539C5.2083 3.96064 5.10855 4.02882 5.01711 4.12926C5.00386 4.14364 4.9938 4.1542 4.98286 4.16564C4.76548 4.39414 4.29167 4.8922 4.29167 5.84889C4.29167 6.85239 5.0153 7.80664 5.12161 7.94682L5.12123 7.94707L5.12217 7.94839L5.12342 7.94957C5.12755 7.95495 5.14292 7.97739 5.16567 8.01064C5.43286 8.40145 6.66142 10.1983 8.52911 10.9278C10.2235 11.5889 10.53 11.5147 10.8039 11.4484C10.8505 11.4372 10.896 11.4261 10.9453 11.4216C11.1671 11.4008 11.5299 11.2489 11.8352 11.0358C12.0884 10.8589 12.3095 10.6354 12.3941 10.4C12.4696 10.1896 12.5124 9.9942 12.5322 9.83326C12.5609 9.59957 12.5381 9.41564 12.4956 9.34457L12.495 9.34401C12.4304 9.23745 12.3185 9.1847 12.1507 9.10551C12.1211 9.09151 12.0895 9.07657 12.0591 9.06189L12.0592 9.0617C11.9435 9.00282 11.5433 8.80714 11.2012 8.64545C10.9801 8.54095 10.7837 8.45114 10.7059 8.4232C10.5965 8.38389 10.5011 8.35414 10.3989 8.36576C10.283 8.37882 10.1819 8.43845 10.0882 8.58039L10.0879 8.58026C10.0409 8.65089 9.95792 8.75689 9.8673 8.86795C9.7238 9.04376 9.55261 9.24114 9.47961 9.32407V9.32464C9.44848 9.36007 9.42161 9.37945 9.3953 9.38257C9.35867 9.38701 9.30842 9.37201 9.23886 9.33789C9.19436 9.31564 9.15105 9.29689 9.09755 9.27376C8.82698 9.15707 8.29998 8.9297 7.69942 8.39795C7.48461 8.20776 7.29555 7.99989 7.13767 7.80489C6.88198 7.4892 6.70936 7.20795 6.64067 7.08951C6.58648 6.99664 6.64673 6.93639 6.70223 6.88082L6.70205 6.88051C6.76348 6.81907 6.83298 6.73551 6.9028 6.6517C6.93455 6.61345 6.96636 6.5752 7.00505 6.5307L7.00567 6.53007C7.0998 6.42064 7.13873 6.34089 7.19148 6.23332C7.20061 6.2147 7.21023 6.19501 7.21986 6.17576L7.22048 6.1752C7.26673 6.08182 7.27861 5.99307 7.26998 5.90989C7.26192 5.83245 7.23605 5.76332 7.20442 5.70151L7.20467 5.70132Z" fill="#FFFFFE"/>
</g>
<defs>
<clipPath id="clip0_1094_6821">
<rect width="16" height="16" fill="white"/>
</clipPath>
</defs>
</svg>
