<svg width="19" height="22" viewBox="0 0 19 22" fill="none" xmlns="http://www.w3.org/2000/svg">
<path d="M8.69287 0.0469991C6.42928 0.355429 6.21413 1.63882 6.21314 2.10967C6.21293 2.20841 6.15823 2.29994 6.06946 2.34312C4.89203 2.91589 5.52685 5.76244 5.52685 5.76244C5.6451 5.77035 5.85479 5.81822 5.94708 5.86295C5.96968 5.72227 6.00659 5.49784 6.05872 5.364C6.09842 5.26199 6.14805 5.15895 6.21009 5.06158C6.31777 4.89267 6.3668 4.69338 6.35219 4.49414C6.30987 3.91823 6.24434 2.86936 7.0045 2.52728C7.64852 2.2375 8.43854 2.4053 8.9423 2.57283C9.26947 2.68163 9.62388 2.68163 9.95108 2.57283C10.4549 2.4053 11.2449 2.2375 11.8889 2.52728C12.6469 2.86837 12.5834 3.91178 12.5416 4.48919C12.527 4.68994 12.5748 4.8913 12.6833 5.06154C12.7473 5.16204 12.7981 5.2686 12.8385 5.37384C12.8886 5.50463 12.9243 5.72575 12.9463 5.86299C13.0627 5.80662 13.3149 5.74521 13.4572 5.76532C13.4746 5.1617 13.5303 4.425 13.5303 4.425C14.2012 1.13957 11.1301 -0.285106 8.69287 0.0469991Z" fill="#56415E"/>
<path d="M9.48994 0.000838228C9.22057 -0.00388833 8.95313 0.0113656 8.69287 0.0468148C6.42928 0.355244 6.21413 1.63864 6.21314 2.10949C6.21293 2.20823 6.15823 2.29975 6.06946 2.34294C4.89203 2.91571 5.52685 5.76226 5.52685 5.76226C5.6451 5.77017 5.85479 5.81803 5.94708 5.86272C5.96968 5.72204 6.00659 5.49762 6.05872 5.36377C6.09842 5.26176 6.14805 5.15872 6.21009 5.06135C6.31777 4.89244 6.3668 4.69315 6.35219 4.49391C6.30987 3.918 6.24434 2.86913 7.0045 2.52706C7.64852 2.23728 8.43854 2.40507 8.9423 2.5726C8.96057 2.57866 8.97896 2.58429 8.99739 2.58966C8.98068 2.55499 8.9628 2.52053 8.94222 2.48662C7.92089 0.803495 9.4899 0.000881197 9.48994 0.000838228Z" fill="#45304C"/>
<path d="M8.57804 13.9719C8.57804 13.9719 9.1854 14.2384 9.44605 14.6206C9.7067 14.2384 10.3141 13.9719 10.3141 13.9719L12.8184 12.6981C12.6374 12.6446 12.4539 12.5955 12.2666 12.5523C11.8304 12.1161 11.7198 11.2891 11.6999 10.7104C11.4723 10.9756 11.2334 11.1974 11.0051 11.3747C10.5603 11.7201 10.0114 11.9077 9.44609 11.9077C8.88079 11.9077 8.33191 11.7201 7.88714 11.3747C7.65885 11.1974 7.4199 10.9756 7.19225 10.7104C7.17231 11.2891 7.06175 12.1161 6.62549 12.5523C6.43832 12.5955 6.25476 12.6446 6.07373 12.6981L8.57804 13.9719Z" fill="#CC8C60"/>
<path d="M7.88675 11.3751C7.65842 11.1979 7.41951 10.9761 7.19186 10.7109C7.17841 11.1017 7.12316 11.6055 6.95459 12.026C7.41066 12.9521 8.11681 14.1213 8.64386 13.7825C9.2422 13.3978 9.39513 12.4356 9.43354 11.9079C8.8725 11.9052 8.3283 11.718 7.88675 11.3751Z" fill="#BA7D54"/>
<path d="M8.62619 13.9009L6.19339 12.6636C6.05009 12.7039 5.90855 12.7475 5.76855 12.7941L6.19979 21.489C7.22257 21.8203 8.31364 22.0001 9.44685 22.0001C9.48372 22.0001 9.52037 21.9991 9.5572 21.9987C9.5572 19.8077 9.5572 15.2284 9.5572 14.8319C9.5572 14.3091 8.62619 13.9009 8.62619 13.9009Z" fill="#BEC8F7"/>
<path d="M6.61882 15.377L5.92668 12.7432C5.87383 12.7598 5.82098 12.7763 5.76855 12.7938L5.91095 15.665C5.96608 15.6628 5.99676 15.6625 5.99676 15.6625C6.18346 15.2529 6.61882 15.377 6.61882 15.377Z" fill="#A8B7EF"/>
<path d="M10.2669 13.9009C10.2669 13.9009 9.33594 14.3091 9.33594 14.8319V21.9987C9.37272 21.9991 9.40937 22.0001 9.44628 22.0001C10.5795 22.0001 11.6706 21.8203 12.6934 21.489L13.1246 12.7941C12.9846 12.7475 12.8431 12.704 12.6998 12.6636L10.2669 13.9009Z" fill="#D3DCFB"/>
<path d="M11.0476 18.1655V20.9909C11.0476 21.2744 11.2796 21.5065 11.5632 21.5065H12.6396C12.6576 21.5008 12.6755 21.4948 12.6934 21.489L12.8838 17.6499H11.5632C11.2796 17.6499 11.0476 17.8819 11.0476 18.1655Z" fill="#DEEEFF"/>
<path d="M11.9482 11.5583C11.8987 11.531 11.8373 11.5596 11.826 11.6149C11.7525 11.975 11.4335 13.1093 10.2489 13.7826C10.1322 13.8489 10.1043 14.0045 10.1925 14.1056L11.3895 15.4766C11.6381 15.7629 12.0957 15.7114 12.275 15.3774C12.5784 14.8128 13.0008 13.9534 13.3136 13.0295C13.3695 12.8641 13.3298 12.6811 13.2117 12.5524C12.8476 12.1552 12.421 11.8194 11.9482 11.5583Z" fill="#DEEEFF"/>
<path d="M6.94506 11.5583C6.99451 11.531 7.05596 11.5596 7.06726 11.6149C7.14078 11.975 7.45978 13.1093 8.64439 13.7826C8.76105 13.8489 8.78898 14.0045 8.70072 14.1056L7.50369 15.4766C7.25516 15.7629 6.79759 15.7114 6.61819 15.3774C6.31492 14.8128 5.89241 13.9534 5.57968 13.0295C5.52369 12.8641 5.56353 12.6811 5.68152 12.5524C6.04564 12.1552 6.47227 11.8194 6.94506 11.5583Z" fill="#DEEEFF"/>
<path d="M17.2204 14.2666C17.0729 14.197 16.915 14.1374 16.747 14.0878L14.3845 12.9634L13.9873 20.9722C16.1165 19.9525 17.849 18.238 18.8924 16.1224C18.8536 16.027 18.8123 15.9325 18.7662 15.84C18.4436 15.1916 17.9553 14.6132 17.2204 14.2666Z" fill="#4A8AF8"/>
<path d="M13.0575 12.3931L12.605 21.5172C13.0873 21.3656 13.5547 21.1806 14.0043 20.9642L14.4007 12.9717L13.9818 12.7723C13.6797 12.6389 13.3724 12.4953 13.0575 12.3931Z" fill="#72AAFC"/>
<path d="M4.30034 15.8711C3.17431 16.224 2.5791 16.8691 2.5791 17.7365V19.4515C3.28186 20.0569 4.06513 20.5714 4.91132 20.976L4.65333 15.7744C4.53702 15.802 4.41859 15.834 4.30034 15.8711Z" fill="#4A8AF8"/>
<path d="M4.5146 12.9604L2.14543 14.088C1.97747 14.1376 1.81947 14.1973 1.672 14.2668C0.937063 14.6135 0.448809 15.1918 0.126156 15.8402C0.0801368 15.9327 0.0388008 16.0272 0 16.1226C0.642684 17.4257 1.54713 18.5762 2.64438 19.5063C2.64438 18.9969 2.64438 18.3974 2.64438 17.7362C2.64438 16.5754 3.72363 16.0644 4.65738 15.8395L4.5146 12.9604Z" fill="#3E7FDD"/>
<path d="M5.95543 15.5994C5.80409 15.6041 5.24489 15.6309 4.62988 15.7801L4.88701 20.9644C5.33663 21.1807 5.80405 21.3658 6.28637 21.5174L5.98997 15.542C5.9779 15.56 5.96625 15.5789 5.95543 15.5994Z" fill="#72AAFC"/>
<path d="M4.49121 12.9717L4.63374 15.8453C5.35531 15.6681 5.99662 15.6628 5.99662 15.6628L5.83446 12.3931C5.51958 12.4953 5.21223 12.6389 4.9102 12.7723L4.49121 12.9717Z" fill="#4A8AF8"/>
<path d="M17.2502 18.5372C17.0419 17.6761 16.5108 17.1787 16.0812 16.9071C15.8126 16.7373 15.4624 16.9284 15.4624 17.2462V20.1117C16.1165 19.6554 16.7162 19.1266 17.2502 18.5372Z" fill="#3E7FDD"/>
<path d="M13.7109 5.75757C13.5346 5.596 13.1404 5.6779 12.9886 5.77682C13.0218 5.98397 13.0237 6.19589 12.995 6.40515L12.8158 7.7102C12.8158 7.81538 12.8125 7.91859 12.8064 8.02C13.2433 8.15179 13.5034 7.75952 13.5399 7.49033C13.5556 7.37444 13.5814 7.26023 13.6171 7.14877C13.7334 6.78585 14.1526 6.16238 13.7109 5.75757Z" fill="#CC8C60"/>
<path d="M5.18222 5.75757C5.35852 5.596 5.75267 5.6779 5.90452 5.77682C5.87127 5.98397 5.86937 6.19589 5.89812 6.40515L6.0773 7.7102C6.0773 7.81538 6.08061 7.91859 6.08671 8.02C5.64976 8.15179 5.38976 7.75952 5.35319 7.49033C5.33746 7.37444 5.31173 7.26023 5.27602 7.14877C5.15979 6.78585 4.7405 6.16238 5.18222 5.75757Z" fill="#BA7D54"/>
<path d="M12.9242 5.37361C12.8839 5.26838 12.833 5.16182 12.769 5.06131C12.6605 4.89107 12.6127 4.68972 12.6272 4.48897C12.6691 3.91156 12.6467 2.78221 11.8886 2.44112C11.2446 2.15134 10.4547 2.31913 9.9509 2.48663C9.62373 2.59542 9.26916 2.59542 8.94199 2.48663C8.91591 2.47795 8.88888 2.46931 8.86134 2.46067C8.2477 2.88619 8.23236 3.91224 8.27211 4.45318C8.28698 4.65543 8.23718 4.85777 8.12786 5.02926C8.06487 5.12809 8.01447 5.23272 7.97416 5.33627C7.84341 5.6722 7.8053 6.03649 7.85428 6.39322L8.03625 7.71841C8.03625 9.62356 9.05324 10.9185 9.91833 11.5903C10.064 11.7034 10.2211 11.7987 10.3858 11.8775C10.6067 11.7899 10.8156 11.6715 11.0055 11.5241C11.8576 10.8624 12.8594 9.58682 12.8594 7.71021L13.0385 6.40516C13.0862 6.05724 13.05 5.70189 12.9242 5.37361Z" fill="#DBA783"/>
<path d="M9.92619 11.5241C9.07408 10.8624 8.07235 9.58684 8.07235 7.71022L7.89313 6.40487C7.84487 6.05352 7.88243 5.69464 8.01125 5.36378C8.05095 5.26178 8.10058 5.15874 8.16267 5.06137C8.27035 4.89242 8.31938 4.69313 8.30472 4.49392C8.26421 3.94246 8.28165 2.87907 8.95059 2.48939C8.94767 2.48844 8.9447 2.48763 8.94178 2.48664C8.43797 2.3191 7.64803 2.15135 7.00406 2.44113C6.24386 2.78317 6.22349 3.91801 6.26581 4.49392C6.28047 4.69313 6.2314 4.89242 6.12372 5.06137C6.06167 5.15874 6.01204 5.26178 5.9723 5.36378C5.84352 5.69464 5.80596 6.05352 5.85422 6.40487L6.03344 7.71022C6.03344 9.58684 7.03521 10.8624 7.88728 11.5241C8.33205 11.8695 8.88094 12.0571 9.44623 12.0571C9.79961 12.0571 10.1466 11.9838 10.4657 11.8444C10.2743 11.7609 10.0929 11.6536 9.92619 11.5241Z" fill="#CC8C60"/>
<path d="M12.8341 8.20937C12.6924 8.55909 12.3979 8.97984 11.858 9.21402C11.7584 8.61985 11.3297 8.0249 10.7573 7.89514L9.88252 7.63814C9.73045 7.59345 9.57817 7.67148 9.51694 7.80396C9.50577 7.82815 9.47195 7.82815 9.46078 7.80396C9.39955 7.67148 9.24727 7.5935 9.09521 7.63814L8.2204 7.89514C7.63676 8.02748 7.20222 8.64352 7.11392 9.24921C6.51678 9.02401 6.20594 8.57735 6.05688 8.20937V8.20954C6.05688 8.37596 6.0724 8.54229 6.10295 8.70587C6.47454 10.6976 7.63285 11.4719 8.50842 11.9181C9.09465 12.2169 9.78997 12.2171 10.3763 11.9186C11.2517 11.4729 12.4157 10.6985 12.7879 8.70639C12.8186 8.54255 12.8341 8.376 12.8341 8.20937ZM10.463 10.4611C10.0873 10.5938 9.67726 10.3575 9.62913 9.9664C9.62853 9.96133 9.62793 9.95626 9.62737 9.9511C9.61947 9.87814 9.55841 9.82211 9.48411 9.82211C9.40978 9.82211 9.34872 9.87819 9.34081 9.9511C9.34026 9.95626 9.33965 9.96133 9.33905 9.9664C9.29093 10.3575 8.88092 10.5938 8.5052 10.4611C7.98824 10.2784 7.76588 9.93246 7.67028 9.67881C7.95035 9.2957 8.36276 9.02079 8.83744 8.91603L8.99371 8.88153C9.22145 8.83125 9.39758 8.60893 9.46216 8.37205C9.46955 8.34485 9.50822 8.34485 9.51565 8.37205C9.58024 8.60893 9.75632 8.83125 9.9841 8.88153L10.1404 8.91603C10.5895 9.01516 10.983 9.26648 11.2613 9.61771C11.2036 9.87389 11.023 10.2632 10.463 10.4611Z" fill="#56415E"/>
<path d="M8.89394 10.4736C8.77131 10.508 8.6363 10.5075 8.50516 10.4611C7.9882 10.2785 7.76579 9.93254 7.67023 9.6789C7.82892 9.46186 8.0301 9.27968 8.26097 9.14334C7.61102 8.71713 8.00384 8.05034 8.0762 7.93896C7.56608 8.13164 7.19478 8.69466 7.11392 9.24925C6.51678 9.02405 6.20594 8.57739 6.05688 8.20941V8.20958C6.05688 8.376 6.0724 8.54233 6.10295 8.70591C6.47454 10.6976 7.63285 11.4719 8.50842 11.9182C8.94224 12.1392 9.43569 12.1964 9.90065 12.0904C8.67557 11.7593 8.84547 10.6915 8.89394 10.4736Z" fill="#45304C"/>
</svg>
