<svg width="28" height="28" viewBox="0 0 28 28" fill="none" xmlns="http://www.w3.org/2000/svg">
<path d="M5.83374 8.16758V19.8324C5.83374 21.4441 6.30921 22.9439 7.11825 24.2111C7.12006 24.2153 7.11941 24.2197 7.12136 24.2238C7.1366 24.2563 7.15858 24.2828 7.17888 24.3109C8.64058 26.5301 11.1511 28 14.0013 28C17.3121 28 20.163 26.0164 21.4442 23.1782C21.4456 23.1761 21.4476 23.1746 21.4489 23.1725C21.453 23.1661 21.453 23.1587 21.4567 23.1522C21.9108 22.1365 22.1689 21.0149 22.1689 19.8324V8.16758C22.1689 3.66406 18.5048 0 14.0013 0C9.4978 0 5.83374 3.66406 5.83374 8.16758ZM6.95374 14.6425L15.1472 19.8387L7.85062 23.263C7.28146 22.2467 6.95374 21.0778 6.95374 19.8324V14.6425ZM21.0489 19.8324C21.0489 20.6001 20.9214 21.3375 20.6934 22.0299L13.1482 17.2447L21.0489 13.3923V19.8324ZM14.0013 26.88C11.7664 26.88 9.77524 25.8311 8.48318 24.2033L16.2683 20.5498L20.2516 23.076C19.0755 25.3329 16.7176 26.88 14.0013 26.88ZM14.0013 1.12C17.8874 1.12 21.0489 4.28148 21.0489 8.16758V12.146L12.0373 16.5401L6.95374 13.3162V8.16758C6.95374 4.28148 10.1152 1.12 14.0013 1.12Z" fill="#4A8AF8"/>
<path d="M14.0001 13.9019C17.2111 13.9019 19.8233 11.2897 19.8233 8.07877C19.8233 7.78992 19.7951 7.50817 19.7543 7.2305C19.7534 7.21918 19.7579 7.20886 19.7563 7.19748C19.7545 7.18494 19.7466 7.17526 19.744 7.16303C19.4057 5.03538 17.915 3.29167 15.9304 2.59119C15.9163 2.58582 15.906 2.57495 15.8912 2.57064C15.8839 2.56856 15.8768 2.57064 15.8695 2.56883C15.2819 2.36881 14.6546 2.25537 14.0001 2.25537C10.7892 2.25537 8.177 4.86779 8.177 8.07877C8.177 11.2897 10.7892 13.9019 14.0001 13.9019ZM18.5106 6.75602C17.0559 6.74248 15.703 6.0057 14.9912 5.53737C15.4205 5.0874 15.7877 4.53229 16.0618 3.85785C17.2361 4.43388 18.1362 5.48173 18.5106 6.75602ZM14.0001 3.37537C14.3427 3.37537 14.676 3.4144 14.9979 3.4843C13.8891 6.10804 10.9566 6.40195 9.616 6.38934C10.2967 4.62915 12.0028 3.37537 14.0001 3.37537ZM9.33686 7.4971C9.41215 7.49901 9.48779 7.501 9.57618 7.501C10.6234 7.501 12.5372 7.33567 14.0987 6.28639C14.818 6.80007 16.5658 7.88107 18.5501 7.88107C18.5971 7.88107 18.6455 7.87243 18.6927 7.8712C18.6958 7.94051 18.7033 8.0087 18.7033 8.07877C18.7033 10.6721 16.5934 12.7819 14.0001 12.7819C11.4068 12.7819 9.297 10.6721 9.297 8.07877C9.297 7.88142 9.31313 7.68813 9.33686 7.4971Z" fill="#4A8AF8"/>
<path d="M12.5897 10.8511C12.6299 10.8727 13.2714 11.2104 14.1125 11.2104C14.5486 11.2104 15.0383 11.1196 15.5256 10.8467C15.7955 10.6955 15.8917 10.3542 15.7405 10.0844C15.589 9.81474 15.2486 9.71877 14.9782 9.86943C14.1002 10.3613 13.1661 9.8883 13.1183 9.86369C12.8473 9.71877 12.5085 9.82103 12.3622 10.0926C12.2156 10.3649 12.3174 10.7045 12.5897 10.8511Z" fill="#4A8AF8"/>
</svg>
