<svg width="24" height="24" viewBox="0 0 24 24" fill="none" xmlns="http://www.w3.org/2000/svg">
<path d="M8.95833 14.2917V22.0833C8.95833 22.1754 8.88372 22.25 8.79167 22.25H2.83333C2.23502 22.25 1.75 21.765 1.75 21.1667V11.0833C1.75 10.1653 2.18223 9.30083 2.91667 8.75L10.25 3.25C11.287 2.47222 12.713 2.47222 13.75 3.25L21.0833 8.75C21.8178 9.30083 22.25 10.1653 22.25 11.0833V21.1667C22.25 21.765 21.765 22.25 21.1667 22.25H14.75C14.658 22.25 14.5833 22.1754 14.5833 22.0833V14.2917C14.5833 13.3712 13.8371 12.625 12.9167 12.625H10.625C9.70453 12.625 8.95833 13.3712 8.95833 14.2917Z" fill="#4A8AF8" stroke="#4A8AF8" stroke-width="1.5"/>
</svg>
