<svg width="14" height="14" viewBox="0 0 14 14" fill="none" xmlns="http://www.w3.org/2000/svg">
<path d="M6.78977 14C7.04202 14 7.27325 13.8949 7.44142 13.6847C8.8288 11.9189 12.066 7.56757 12.066 5.25525C12.066 2.35435 9.71169 0 6.81079 0C3.90989 0 1.55554 2.35435 1.55554 5.25525C1.55554 7.58859 4.79277 11.9399 6.18016 13.6847C6.30629 13.8949 6.53752 14 6.78977 14ZM6.78977 0.840841C9.2282 0.840841 11.2042 2.81682 11.2042 5.25525C11.2042 6.93694 8.93391 10.4264 6.78977 13.1592C4.64563 10.4264 2.37536 6.93694 2.37536 5.25525C2.37536 2.81682 4.35133 0.840841 6.78977 0.840841Z" fill="#4A8AF8"/>
<path d="M9.27028 5.23439C9.27028 3.86802 8.15617 2.75391 6.7898 2.75391C5.42344 2.75391 4.30933 3.86802 4.30933 5.23439C4.30933 6.60075 5.42344 7.73589 6.7898 7.73589C8.15617 7.73589 9.27028 6.60075 9.27028 5.23439ZM5.15017 5.23439C5.15017 4.33048 5.8859 3.59475 6.7898 3.59475C7.69371 3.59475 8.42944 4.33048 8.42944 5.23439C8.42944 6.13829 7.69371 6.87403 6.7898 6.87403C5.8859 6.87403 5.15017 6.13829 5.15017 5.23439Z" fill="#4A8AF8"/>
</svg>
