<svg width="17" height="16" viewBox="0 0 17 16" fill="none" xmlns="http://www.w3.org/2000/svg">
<path d="M14.8598 6.85714H9.1445V1.14286C9.1445 0.511543 8.63286 0 8.00144 0C7.37001 0 6.85837 0.511543 6.85837 1.14286V6.85714H1.14306C0.511635 6.85714 0 7.36869 0 8C0 8.63131 0.511635 9.14286 1.14306 9.14286H6.85837V14.8571C6.85837 15.4885 7.37001 16 8.00144 16C8.63286 16 9.1445 15.4885 9.1445 14.8571V9.14286H14.8598C15.4912 9.14286 16.0029 8.63131 16.0029 8C16.0029 7.36869 15.4912 6.85714 14.8598 6.85714Z" fill="#4A8AF8"/>
</svg>
