<svg width="16" height="16" viewBox="0 0 16 16" fill="none" xmlns="http://www.w3.org/2000/svg">
<g clip-path="url(#clip0_1094_10091)">
<path d="M-3.49691e-07 8C-1.56792e-07 12.413 3.58698 16 8 16C12.413 16 16 12.413 16 8C16 3.58698 12.413 1.56792e-07 8 3.49691e-07C3.58698 5.4259e-07 -5.4259e-07 3.58698 -3.49691e-07 8ZM14.8837 8C14.8837 11.7953 11.7953 14.8837 8 14.8837C4.20465 14.8837 1.11628 11.7953 1.11628 8C1.11628 4.20465 4.20465 1.11628 8 1.11628C11.7953 1.11628 14.8837 4.20465 14.8837 8Z" fill="#4A8AF8"/>
<path d="M4.81495 8.93786C4.81495 9.07925 4.86704 9.22065 4.97867 9.33227C5.19448 9.5481 5.55169 9.5481 5.76751 9.33227L8.00006 7.09972L10.2327 9.33227C10.4485 9.5481 10.8057 9.5481 11.0215 9.33227C11.2373 9.11646 11.2373 8.75925 11.0215 8.54344L8.39448 5.91646C8.17867 5.70065 7.82146 5.70065 7.60565 5.91646L4.97867 8.54344C4.86704 8.65507 4.81495 8.79646 4.81495 8.93786Z" fill="#4A8AF8"/>
</g>
<defs>
<clipPath id="clip0_1094_10091">
<rect width="16" height="16" fill="white" transform="matrix(1 0 0 -1 0 16)"/>
</clipPath>
</defs>
</svg>
