<svg width="24" height="24" viewBox="0 0 24 24" fill="none" xmlns="http://www.w3.org/2000/svg">
<path fill-rule="evenodd" clip-rule="evenodd" d="M8.17398 3C5.79836 3 3.86963 4.92873 3.86963 7.30435C3.86963 9.67997 5.79836 11.6087 8.17398 11.6087C10.5496 11.6087 12.4783 9.67997 12.4783 7.30435C12.4783 4.92873 10.5496 3 8.17398 3ZM8.17398 4.07041C10.0216 4.07041 11.3934 5.45673 11.3934 7.30435C11.3934 9.15197 10.0216 10.5 8.17398 10.5C6.32636 10.5 5 9.15197 5 7.30435C5 5.45673 6.32636 4.07041 8.17398 4.07041Z" fill="#999999"/>
<path fill-rule="evenodd" clip-rule="evenodd" d="M17.7392 6.82617C15.8917 6.82617 14.3914 8.32648 14.3914 10.174C14.3914 12.0215 15.8917 13.5218 17.7392 13.5218C19.5867 13.5218 21.087 12.0215 21.087 10.174C21.087 8.32648 19.5867 6.82617 17.7392 6.82617ZM17.7392 8C19.0592 8 20 8.854 20 10.174C20 11.494 19.0592 12.4194 17.7392 12.4194C16.4192 12.4194 15.5 11.494 15.5 10.174C15.5 8.854 16.4192 8 17.7392 8Z" fill="#999999"/>
<path fill-rule="evenodd" clip-rule="evenodd" d="M21.5652 21.1741C19.7325 21.1741 4.89974 21.1741 2.43478 21.1741C1.6423 21.1741 1 20.5318 1 19.7393V18.7828C1 15.3489 3.78348 12.5654 7.21739 12.5654C7.85109 12.5654 8.49674 12.5654 9.13043 12.5654C11.2678 12.5654 13.1531 13.6439 14.2722 15.2863C14.9786 14.7779 15.8457 14.4785 16.7826 14.4785C17.4125 14.4785 18.0658 14.4785 18.6957 14.4785C21.0731 14.4785 23 16.4054 23 18.7828V19.7393C23 20.12 22.8489 20.485 22.5796 20.7537C22.3108 21.023 21.9459 21.1741 21.5652 21.1741ZM15.3478 20.0002H21.5C21.6267 20.0002 21.9106 20.0902 22 20.0002C22.0899 19.9108 22 19.627 22 19.5002L21.8906 18.7828C21.8906 16.9339 20.5446 15.594 18.6957 15.594H16.7826C16.0188 15.594 15.3144 15.6909 14.751 16.1218C15.1336 16.9286 15.3478 17.8306 15.3478 18.7828V19.7393C15.3478 19.9072 15.4009 19.8505 15.3478 20.0002ZM14.3913 18.7828V19.7393C14.3913 20.0033 14.1234 20.0002 13.8594 20.0002H2.43478C2.17078 20.0002 2 19.7642 2 19.5002V18.5002C2.43478 15.594 4.5 14.0002 7.21739 13.719C7.85109 13.719 8.49674 13.719 9.13043 13.719C12.0359 13.719 14 16.0002 14.3913 18.7828Z" fill="#999999"/>
</svg>
