<svg width="28" height="28" viewBox="0 0 28 28" fill="none" xmlns="http://www.w3.org/2000/svg">
<g clip-path="url(#clip0_1094_4239)">
<path d="M0.21768 19.7343V15.6013C0.219025 14.3338 1.24621 13.3066 2.51376 13.3053H4.35063V12.7131C4.35063 12.4595 4.55624 12.2539 4.80984 12.2539H7.56514C7.81874 12.2539 8.02436 12.4595 8.02436 12.7131V13.3053H12.1573V7.79467C12.1573 7.54107 12.3629 7.33545 12.6165 7.33545H15.3718C15.6254 7.33545 15.831 7.54107 15.831 7.79467V13.3053H19.964C19.964 13.0517 20.1696 12.846 20.4232 12.846H23.1785C23.4321 12.846 23.6377 13.0517 23.6377 13.3053H25.4746C26.7419 13.3066 27.7691 14.3338 27.7707 15.6013V19.7343C27.7864 20.7198 27.2563 21.6335 26.393 22.1093V27.0817H27.3114C27.565 27.0817 27.7707 27.2874 27.7707 27.541C27.7707 27.7946 27.565 28.0002 27.3114 28.0002H0.676897C0.423296 28.0002 0.21768 27.7946 0.21768 27.541C0.21768 27.2874 0.423296 27.0817 0.676897 27.0817H1.59533V22.1162C0.745285 21.6234 0.220819 20.7166 0.21768 19.7343ZM7.10592 14.1723H5.26906V13.3053H7.10592V14.1723ZM14.9126 8.25388H13.0757V13.3053H14.9126V8.25388ZM22.7193 14.1723H20.8824V13.3053H22.7193V14.1723ZM26.8522 15.6013C26.8522 14.8403 26.2354 14.2237 25.4746 14.2237H2.51376C1.75274 14.2237 1.13611 14.8403 1.13611 15.6013V19.7343C1.13768 20.4637 1.5682 21.1238 2.23505 21.4196C2.92925 21.712 3.73109 21.5615 4.27192 21.037C4.61678 20.6911 4.81007 20.2224 4.80984 19.7343V17.8974C4.81209 17.2039 5.2056 16.5713 5.82649 16.2626L5.85452 16.2473C5.92806 16.2126 6.00385 16.183 6.08143 16.1588C6.12717 16.1435 6.1691 16.1285 6.21462 16.1175C6.27337 16.1041 6.33279 16.0935 6.39266 16.0861C6.43302 16.0803 6.47159 16.0682 6.51262 16.065C6.5346 16.065 6.55567 16.0682 6.5772 16.0673C6.59895 16.0664 6.62271 16.0606 6.64671 16.0606C6.69761 16.0606 6.74671 16.0711 6.79716 16.0751C6.84784 16.0794 6.90143 16.0816 6.953 16.0904C7.03238 16.1052 7.11086 16.1254 7.18754 16.1505C7.22902 16.1633 7.27118 16.1724 7.31154 16.1881C7.3972 16.2229 7.47993 16.2644 7.55909 16.3121C7.58801 16.3287 7.61873 16.3406 7.64721 16.3581C7.75439 16.4276 7.85417 16.5081 7.94476 16.5983C8.29074 16.9418 8.4847 17.4097 8.48357 17.8974V18.8159C8.48357 19.8303 9.30581 20.6527 10.3204 20.6527C11.3348 20.6527 12.1573 19.8303 12.1573 18.8159V17.8974C12.1595 17.2039 12.5531 16.5713 13.1739 16.2626L13.202 16.2473C13.2755 16.2126 13.3513 16.183 13.4289 16.1588C13.4746 16.1435 13.5166 16.1285 13.5621 16.1175C13.6208 16.1041 13.6803 16.0935 13.7401 16.0861C13.7805 16.0803 13.819 16.0682 13.8601 16.065C13.8821 16.065 13.9031 16.0682 13.9247 16.0673C13.9464 16.0664 13.9702 16.0606 13.9942 16.0606C14.0451 16.0606 14.0942 16.0711 14.1446 16.0751C14.1953 16.0794 14.2489 16.0816 14.3005 16.0904C14.3796 16.1052 14.4579 16.1254 14.5346 16.1505C14.5765 16.1633 14.6186 16.1724 14.659 16.1881C14.7442 16.2229 14.8267 16.2642 14.9057 16.3117C14.935 16.3283 14.9662 16.3406 14.9947 16.3577C15.1018 16.4269 15.2016 16.5072 15.2922 16.5974C15.6384 16.9411 15.8324 17.4095 15.831 17.8974V20.6527C15.831 21.6671 16.6533 22.4896 17.6679 22.4896C18.6823 22.4896 19.5048 21.6671 19.5048 20.6527V17.8974C19.507 17.2039 19.9005 16.5713 20.5214 16.2626L20.5494 16.2473C20.623 16.2126 20.6988 16.183 20.7764 16.1588C20.8221 16.1435 20.864 16.1285 20.9095 16.1175C20.9683 16.1041 21.0277 16.0935 21.0876 16.0861C21.1279 16.0803 21.1665 16.0682 21.2075 16.065C21.2484 16.0619 21.2957 16.0606 21.3416 16.0606C22.356 16.0606 23.1785 16.8828 23.1785 17.8974V19.7343C23.1778 20.2209 23.3698 20.6879 23.7126 21.0332C24.1678 21.4714 24.8111 21.6539 25.4286 21.52C25.5385 21.4967 25.6461 21.4635 25.7499 21.4205C25.9598 21.3279 26.1511 21.198 26.3143 21.037C26.6592 20.6911 26.8524 20.2224 26.8522 19.7343V15.6013ZM25.4746 27.0817V22.4515C25.4286 22.4591 25.3826 22.4611 25.3367 22.4665L25.3015 22.4703C24.8997 22.5118 24.4936 22.4647 24.1119 22.3324C23.9954 22.2914 23.8814 22.2425 23.7713 22.1864C23.7478 22.175 23.7254 22.1624 23.7009 22.1497C23.6119 22.1012 23.5254 22.0481 23.442 21.9902C23.4153 21.9721 23.3884 21.955 23.3621 21.9357C22.6592 21.4243 22.2484 20.6034 22.2601 19.7343V17.8974C22.2605 17.6537 22.1634 17.42 21.9905 17.2485C21.9446 17.203 21.8941 17.1622 21.8399 17.1272C21.8302 17.1214 21.8197 17.1171 21.81 17.1117C21.765 17.0842 21.7179 17.0606 21.669 17.0413C21.6546 17.0359 21.6401 17.0326 21.6257 17.0281C21.5809 17.0128 21.5349 17.0014 21.488 16.9936C21.4661 16.99 21.4421 16.9891 21.4206 16.9866C21.382 16.983 21.3432 16.9817 21.3044 16.9826C21.2755 16.9839 21.2466 16.9868 21.2181 16.9913C21.1835 16.9954 21.1492 17.0016 21.1156 17.0102C21.1042 17.0128 21.0936 17.0171 21.0826 17.0202C20.6824 17.1662 20.418 17.549 20.4232 17.975V20.6527C20.4232 22.1743 19.1895 23.408 17.6679 23.408C16.1461 23.408 14.9126 22.1743 14.9126 20.6527V17.8974C14.9126 17.5855 14.7538 17.2952 14.4915 17.1268C14.4837 17.1218 14.4745 17.1185 14.4666 17.1135C14.42 17.0851 14.3711 17.0606 14.3202 17.0409C14.3072 17.0359 14.294 17.033 14.2812 17.029C14.2361 17.0137 14.1901 17.0016 14.1433 16.9931C14.1213 16.99 14.0973 16.9886 14.0771 16.9866C14.0386 16.9828 13.9996 16.9815 13.9605 16.9826C13.9316 16.9839 13.9029 16.9868 13.8742 16.9913C13.8397 16.9954 13.8056 17.0016 13.7717 17.0102C13.7603 17.0128 13.7498 17.0171 13.7388 17.0202C13.3372 17.1651 13.071 17.5481 13.0757 17.975V18.8159C13.0757 20.3375 11.842 21.5712 10.3204 21.5712C8.79861 21.5712 7.56514 20.3375 7.56514 18.8159V17.8974C7.56559 17.6537 7.4685 17.42 7.29562 17.2485C7.24965 17.203 7.1992 17.1622 7.14494 17.1272C7.1353 17.1214 7.12476 17.1171 7.11467 17.1111C7.06982 17.0839 7.02274 17.0606 6.97408 17.0413C6.95973 17.0359 6.9447 17.0326 6.92811 17.0281C6.88394 17.0128 6.83865 17.0014 6.79268 16.9936C6.7707 16.99 6.74671 16.9891 6.72519 16.9866C6.68662 16.983 6.64783 16.9817 6.60904 16.9826C6.58011 16.9839 6.55119 16.9868 6.52271 16.9913C6.48818 16.9954 6.45387 17.0016 6.42024 17.0102C6.4088 17.0128 6.39826 17.0171 6.38728 17.0202C5.98726 17.1664 5.72289 17.5492 5.72828 17.975V19.7343C5.72895 20.4662 5.4388 21.1684 4.92128 21.6864C4.83025 21.7752 4.73316 21.8577 4.63069 21.9335C4.60086 21.955 4.57014 21.9743 4.53875 21.9949C4.46162 22.0476 4.38359 22.0965 4.30242 22.1409C4.27013 22.1584 4.23806 22.1754 4.20555 22.1914C4.11295 22.2373 4.0181 22.2781 3.92123 22.3136C3.90195 22.3205 3.88311 22.3293 3.86338 22.3358C3.61135 22.4216 3.34856 22.4712 3.08262 22.4826H3.07948C2.95145 22.4878 2.82319 22.484 2.69561 22.4712L2.64964 22.466C2.60368 22.4611 2.55771 22.4591 2.51174 22.4515V27.0817H25.4746Z" fill="#4A8AF8"/>
<path d="M13.9941 6.41692C15.2616 6.41535 16.2888 5.38817 16.2902 4.12084C16.2902 3.01854 14.6925 0.649585 14.3721 0.186108C14.2818 0.0688376 14.1423 0 13.9941 0C13.8461 0 13.7064 0.0688376 13.6163 0.186108C13.2956 0.649585 11.698 3.01854 11.698 4.12084C11.6996 5.38817 12.7268 6.41535 13.9941 6.41692ZM13.9941 1.2772C14.6549 2.30998 15.3717 3.61924 15.3717 4.12084C15.3717 4.88164 14.7551 5.49849 13.9941 5.49849C13.2333 5.49849 12.6164 4.88164 12.6164 4.12084C12.6164 3.61924 13.3333 2.30998 13.9941 1.2772Z" fill="#4A8AF8"/>
</g>
<defs>
<clipPath id="clip0_1094_4239">
<rect width="28" height="28" fill="white"/>
</clipPath>
</defs>
</svg>
