<svg width="23" height="24" viewBox="0 0 23 24" fill="none" xmlns="http://www.w3.org/2000/svg">
<path d="M11.2458 0L13.009 6.18737C13.2785 7.13486 13.749 7.95941 14.3879 8.62496C15.0269 9.29051 15.8296 9.79588 16.7641 10.1038L22.4916 12L16.7641 13.895C15.8296 14.2041 15.0269 14.7083 14.3879 15.3744C13.749 16.0406 13.2785 16.8645 13.009 17.8114L11.2458 24L9.48261 17.8114C9.2119 16.8634 8.74141 16.0394 8.10364 15.3739C7.46587 14.7083 6.662 14.2035 5.72811 13.895L0 12L5.78189 10.0831C6.6951 9.77165 7.47946 9.27514 8.10364 8.62437C8.74141 7.95941 9.21249 7.13486 9.48261 6.18737L11.2458 0Z" fill="#333333"/>
</svg>
