<svg width="24" height="24" viewBox="0 0 24 24" fill="none" xmlns="http://www.w3.org/2000/svg">
<g clip-path="url(#clip0_1094_2001)">
<path d="M22.1293 17.7055L20.6639 15.5973C20.4638 15.3107 20.3562 14.9698 20.3553 14.6203V8.56996C20.3553 6.29708 19.4525 4.11729 17.8453 2.51012C16.2381 0.902958 14.0583 6.10352e-05 11.7855 6.10352e-05C9.51258 6.10352e-05 7.33279 0.902958 5.72563 2.51012C4.11846 4.11729 3.21556 6.29708 3.21556 8.56996V14.6203C3.21473 14.9698 3.10708 15.3107 2.90704 15.5973L1.44159 17.7055C1.2197 17.9513 1.07379 18.2562 1.0215 18.5832C0.96921 18.9102 1.01278 19.2454 1.14695 19.5482C1.28112 19.851 1.50014 20.1084 1.77752 20.2894C2.0549 20.4703 2.37876 20.567 2.70994 20.5678H7.58621C7.7829 21.5365 8.30842 22.4073 9.07372 23.0328C9.83902 23.6584 10.797 24.0001 11.7855 24.0001C12.7739 24.0001 13.7319 23.6584 14.4972 23.0328C15.2625 22.4073 15.788 21.5365 15.9847 20.5678H20.861C21.1922 20.567 21.516 20.4703 21.7934 20.2894C22.0708 20.1084 22.2898 19.851 22.424 19.5482C22.5581 19.2454 22.6017 18.9102 22.5494 18.5832C22.4971 18.2562 22.3512 17.9513 22.1293 17.7055ZM11.7855 22.2818C11.255 22.2803 10.738 22.1148 10.3054 21.8079C9.87272 21.5011 9.54555 21.0679 9.36875 20.5678H14.2022C14.0254 21.0679 13.6982 21.5011 13.2655 21.8079C12.8329 22.1148 12.3159 22.2803 11.7855 22.2818ZM2.70994 18.8538C2.74867 18.8179 2.78318 18.7776 2.81278 18.7339L4.31251 16.5742C4.71259 16.0011 4.92788 15.3193 4.92954 14.6203V8.56996C4.92954 6.75165 5.65186 5.00782 6.93759 3.72209C8.22332 2.43636 9.96715 1.71404 11.7855 1.71404C13.6038 1.71404 15.3476 2.43636 16.6333 3.72209C17.9191 5.00782 18.6414 6.75165 18.6414 8.56996V14.6203C18.643 15.3193 18.8583 16.0011 19.2584 16.5742L20.7581 18.7339C20.7877 18.7776 20.8222 18.8179 20.861 18.8538H2.70994Z" fill="#333333"/>
</g>
<defs>
<clipPath id="clip0_1094_2001">
<rect width="24" height="24" fill="white"/>
</clipPath>
</defs>
</svg>
