<svg width="24" height="28" viewBox="0 0 24 28" fill="none" xmlns="http://www.w3.org/2000/svg">
<g clip-path="url(#clip0_1094_1482)">
<path d="M5.01836 17.4913C2.91081 18.2838 -0.0785358 19.0863 0.0015136 21.75V24.9225C0.0015136 24.9225 2.22289 26.83 7.27726 27.6375C5.73012 24.4822 4.95586 21.0045 5.01836 17.4913Z" fill="#454545"/>
<path d="M6.29291 17.1162C5.8614 17.2275 5.43863 17.355 5.01838 17.4912C4.95606 21.005 5.73076 24.4832 7.27852 27.6387C8.68535 27.8618 10.1068 27.9805 11.5311 27.9937V19.6487L9.28851 21.5962C8.47427 21.1346 7.77933 20.4891 7.2592 19.7112C6.73907 18.9333 6.40817 18.0447 6.29291 17.1162Z" fill="#4DBCFB"/>
<path d="M18.9107 17.4912C18.4917 17.355 18.0677 17.2287 17.6362 17.1162C17.5204 18.0451 17.1887 18.9341 16.6677 19.712C16.1466 20.4899 15.4507 21.1352 14.6356 21.5962L12.3967 19.6487V28C12.8194 28 13.2497 27.9837 13.6637 27.96C14.6626 27.9088 15.658 27.8036 16.6455 27.645C18.1967 24.4882 18.9732 21.0076 18.9107 17.4912Z" fill="#4DBCFB"/>
<path d="M6.29291 17.1163C6.40816 18.0447 6.73907 18.9333 7.2592 19.7112C7.77933 20.4891 8.47427 21.1346 9.28851 21.5963L11.5261 19.6488V28C11.8163 28.0075 12.114 28.0075 12.4017 28V19.6488L14.6406 21.5963C15.455 21.1348 16.1502 20.4893 16.6706 19.7114C17.1909 18.9335 17.522 18.0448 17.6374 17.1163C13.9149 16.1723 10.0154 16.1723 6.29291 17.1163Z" fill="#4A8AF8"/>
<path d="M23.9263 21.75C24.0076 19.085 21.0182 18.2813 18.9107 17.49C18.9737 21.0038 18.199 24.4822 16.6505 27.6375C21.7061 26.83 23.9263 24.9225 23.9263 24.9225V21.75Z" fill="#454545"/>
<path d="M14.3679 23.6862C14.3679 23.8073 14.3198 23.9233 14.2342 24.0089C14.1486 24.0944 14.0324 24.1425 13.9114 24.1425C13.7903 24.1425 13.6742 24.0944 13.5886 24.0089C13.5029 23.9233 13.4548 23.8073 13.4548 23.6862C13.4548 23.5652 13.5029 23.4492 13.5886 23.3636C13.6742 23.2781 13.7903 23.23 13.9114 23.23C14.0324 23.23 14.1486 23.2781 14.2342 23.3636C14.3198 23.4492 14.3679 23.5652 14.3679 23.6862Z" fill="#454545"/>
<path d="M14.3679 25.875C14.3679 25.996 14.3198 26.1121 14.2342 26.1976C14.1486 26.2832 14.0324 26.3312 13.9114 26.3312C13.7903 26.3312 13.6742 26.2832 13.5886 26.1976C13.5029 26.1121 13.4548 25.996 13.4548 25.875C13.4548 25.754 13.5029 25.6379 13.5886 25.5524C13.6742 25.4668 13.7903 25.4187 13.9114 25.4187C14.0324 25.4187 14.1486 25.4668 14.2342 25.5524C14.3198 25.6379 14.3679 25.754 14.3679 25.875Z" fill="#454545"/>
<path d="M14.8482 12.68V12.6862L14.8513 12.6816L14.8482 12.68Z" fill="#F1F1F1"/>
<path d="M15.9877 16.75C15.4758 16.2197 15.1038 15.5706 14.9049 14.8611C14.706 14.1516 14.6865 13.4039 14.8482 12.685C14.0158 13.3101 13.0027 13.6481 11.9614 13.6481C10.9202 13.6481 9.90707 13.3101 9.07464 12.685C9.23582 13.4037 9.21634 14.1511 9.01795 14.8605C8.81955 15.5698 8.4484 16.219 7.93768 16.75C7.93768 18.1412 11.9639 19.2675 11.9639 19.2675C11.9639 19.2675 15.9914 18.1425 15.9914 16.75H15.9877Z" fill="#F1F1F1"/>
<path d="M11.9564 3.54125C12.734 4.25278 13.6591 4.78412 14.6657 5.09741C15.6723 5.41071 16.7357 5.49823 17.78 5.35375C17.3435 1.05125 14.7606 0 11.9589 0C9.15718 0 6.59185 1.04125 6.14032 5.3075C7.79228 4.01738 9.86551 3.38777 11.9564 3.54125Z" fill="#454545"/>
<path d="M18.0802 6.675C18.0032 6.66908 17.9258 6.67842 17.8525 6.7025C17.8532 6.25192 17.8289 5.80166 17.78 5.35375C16.7356 5.49823 15.6723 5.4107 14.6657 5.09741C13.659 4.78412 12.734 4.25277 11.9564 3.54125C9.86548 3.38777 7.79225 4.01737 6.14029 5.3075C6.09226 5.77095 6.06805 6.23656 6.06775 6.7025C4.47927 6.35375 4.83324 10.6225 6.33791 10.0537C8.07023 17.0162 15.855 17.0125 17.5799 10.0537C19.0232 10.58 19.3885 6.7925 18.0802 6.675Z" fill="white"/>
</g>
<defs>
<clipPath id="clip0_1094_1482">
<rect width="23.9273" height="28" fill="white"/>
</clipPath>
</defs>
</svg>
