<svg width="28" height="28" viewBox="0 0 28 28" fill="none" xmlns="http://www.w3.org/2000/svg">
<path d="M2.97364 1.18845H10.8827C11.8708 1.18845 12.6663 1.98396 12.6663 2.9708V10.8796C12.6663 11.868 11.8708 12.6635 10.8827 12.6635H2.97364C1.98493 12.6635 1.19128 11.868 1.19128 10.8796V2.9708C1.19128 1.98396 1.98493 1.18845 2.97364 1.18845Z" fill="#4DBCFB"/>
<path d="M2.97364 15.3732H10.8827C11.8708 15.3732 12.6663 16.1688 12.6663 17.1556V25.0662C12.6663 26.0531 11.8708 26.8486 10.8827 26.8486H2.97364C1.98493 26.8486 1.19128 26.0531 1.19128 25.0662V17.1556C1.19128 16.1688 1.98493 15.3732 2.97364 15.3732Z" fill="#333333"/>
<path d="M17.1469 15.3732H25.056C26.0422 15.3732 26.838 16.1688 26.838 17.1556V25.0662C26.838 26.0531 26.0422 26.8486 25.056 26.8486H17.1469C16.1582 26.8486 15.3627 26.0531 15.3627 25.0662V17.1556C15.3627 16.1688 16.1585 15.3732 17.1469 15.3732Z" fill="#333333"/>
<path d="M20.2581 1.3129H21.9449C24.5862 1.3129 26.7136 3.44059 26.7136 6.08223V7.76876C26.7136 10.4117 24.5862 12.539 21.9449 12.539H20.2581C17.6152 12.539 15.4878 10.4113 15.4878 7.76876V6.08223C15.4878 3.44059 17.6152 1.3129 20.2581 1.3129Z" fill="#4A8AF8"/>
</svg>
