<svg width="24" height="24" viewBox="0 0 24 24" fill="none" xmlns="http://www.w3.org/2000/svg">
<g clip-path="url(#clip0_1094_8794)">
<path fill-rule="evenodd" clip-rule="evenodd" d="M17.1651 18.2971L22.6348 23.766C22.9468 24.078 23.454 24.078 23.766 23.766C24.078 23.454 24.078 22.9468 23.766 22.6348L18.2971 17.1651C19.8571 15.3467 20.8003 12.9826 20.8003 10.4002C20.8003 4.66008 16.1403 0 10.4002 0C4.66008 0 0 4.66008 0 10.4002C0 16.1403 4.66008 20.8003 10.4002 20.8003C12.9826 20.8003 15.3467 19.8571 17.1651 18.2971ZM10.4002 1.60003C15.2571 1.60003 19.2003 5.54329 19.2003 10.4002C19.2003 15.2571 15.2571 19.2003 10.4002 19.2003C5.54329 19.2003 1.60003 15.2571 1.60003 10.4002C1.60003 5.54329 5.54329 1.60003 10.4002 1.60003Z" fill="#999999"/>
</g>
<defs>
<clipPath id="clip0_1094_8794">
<rect width="24" height="24" fill="white"/>
</clipPath>
</defs>
</svg>
