<svg width="24" height="24" viewBox="0 0 24 24" fill="none" xmlns="http://www.w3.org/2000/svg">
<path d="M1 11.974C1 18.0283 5.93701 22.948 12 22.948C18.063 22.948 23 18.0283 23 11.974C23 5.91968 18.063 1 12 1C5.93701 1 1 5.91968 1 11.974ZM21.7874 11.974C21.7874 17.3528 17.3961 21.7354 12 21.7354C6.60394 21.7354 2.2126 17.3528 2.2126 11.974C2.2126 6.59528 6.60394 2.2126 12 2.2126C17.3961 2.2126 21.7874 6.59528 21.7874 11.974Z" fill="#999999"/>
<path d="M8.38822 5.82422C8.05042 5.82422 7.78192 6.09272 7.78192 6.43052C7.78192 6.76831 8.05042 7.03682 8.38822 7.03682H10.4583C11.6276 7.03682 12.6063 7.84233 12.8748 8.92501H8.38822C8.05042 8.92501 7.78192 9.19351 7.78192 9.53131C7.78192 9.8691 8.05042 10.1376 8.38822 10.1376H12.8748C12.6063 11.2203 11.6189 12.0258 10.4583 12.0258H8.38822C8.13704 12.0258 7.9205 12.173 7.82523 12.4069C7.72995 12.6408 7.79058 12.9006 7.97247 13.0738L13.1433 17.9589C13.2646 18.0715 13.4118 18.1234 13.5591 18.1234C13.7237 18.1234 13.8796 18.0628 14.0008 17.9329C14.2347 17.6904 14.2174 17.3093 13.9748 17.0754L9.91263 13.2384H10.4583C12.2945 13.2384 13.8276 11.8959 14.1134 10.1376H15.6118C15.9496 10.1376 16.2181 9.8691 16.2181 9.53131C16.2181 9.19351 15.9496 8.92501 15.6118 8.92501H14.1134C13.9922 8.20611 13.6717 7.5565 13.1953 7.03682H15.6118C15.9496 7.03682 16.2181 6.76831 16.2181 6.43052C16.2181 6.09272 15.9496 5.82422 15.6118 5.82422H10.4496H8.38822Z" fill="#999999"/>
</svg>
