<svg width="28" height="28" viewBox="0 0 28 28" fill="none" xmlns="http://www.w3.org/2000/svg">
<path d="M3.11108 3.88886C3.11108 3.88886 3.11108 3.11108 3.88886 3.11108H8.55553C8.55553 3.11108 9.33331 3.11108 9.33331 3.88886V5.44442H3.11108V3.88886Z" fill="#4A8AF8"/>
<path d="M0 7.7778C0 7.7778 0 4.66669 3.11111 4.66669H24.8889C24.8889 4.66669 28 4.66669 28 7.7778V21.7778C28 21.7778 28 24.8889 24.8889 24.8889H3.11111C3.11111 24.8889 0 24.8889 0 21.7778V7.7778Z" fill="#333333"/>
<path d="M16.3333 22.5556C20.6289 22.5556 24.1111 19.0733 24.1111 14.7778C24.1111 10.4822 20.6289 7 16.3333 7C12.0378 7 8.55554 10.4822 8.55554 14.7778C8.55554 19.0733 12.0378 22.5556 16.3333 22.5556Z" fill="#4A8AF8"/>
<path d="M16.3333 21C19.7697 21 22.5555 18.2142 22.5555 14.7778C22.5555 11.3413 19.7697 8.55554 16.3333 8.55554C12.8969 8.55554 10.1111 11.3413 10.1111 14.7778C10.1111 18.2142 12.8969 21 16.3333 21Z" fill="white"/>
<path d="M16.3333 18.6667C18.4811 18.6667 20.2222 16.9255 20.2222 14.7778C20.2222 12.63 18.4811 10.8889 16.3333 10.8889C14.1856 10.8889 12.4445 12.63 12.4445 14.7778C12.4445 16.9255 14.1856 18.6667 16.3333 18.6667Z" fill="#4A8AF8"/>
<path d="M25.2778 8.55556C25.9221 8.55556 26.4444 8.03323 26.4444 7.3889C26.4444 6.74456 25.9221 6.22223 25.2778 6.22223C24.6334 6.22223 24.1111 6.74456 24.1111 7.3889C24.1111 8.03323 24.6334 8.55556 25.2778 8.55556Z" fill="white"/>
<path d="M9.33331 7.3889C9.33331 7.69832 9.21039 7.99506 8.9916 8.21385C8.77281 8.43265 8.47606 8.55556 8.16664 8.55556H4.27775C3.96833 8.55556 3.67159 8.43265 3.45279 8.21385C3.234 7.99506 3.11108 7.69832 3.11108 7.3889C3.11108 7.07948 3.234 6.78273 3.45279 6.56394C3.67159 6.34515 3.96833 6.22223 4.27775 6.22223H8.16664C8.47606 6.22223 8.77281 6.34515 8.9916 6.56394C9.21039 6.78273 9.33331 7.07948 9.33331 7.3889Z" fill="white"/>
</svg>
