<svg width="120" height="120" viewBox="0 0 120 120" fill="none" xmlns="http://www.w3.org/2000/svg">
<path d="M58.5294 8.59062V7.65625C58.5294 7.65625 58.505 7.99688 58.5294 8.59062Z" fill="#4A8AF8"/>
<path d="M58.5 7.65625V8.59062C58.5244 7.99687 58.5 7.65625 58.5 7.65625Z" fill="#4A8AF8"/>
<path d="M57.5422 10.6185C54.4004 26.546 44.0078 51.7444 8.37183 60.9589C42.4018 69.7872 53.3956 95.2841 57.0717 111.301C60.2177 95.3656 70.167 70.1567 105.857 60.9589C71.7719 52.1057 61.2204 26.6233 57.5422 10.6185Z" fill="#4A8AF8"/>
<path d="M99.1548 50.0198C100.498 43.2128 104.749 32.4406 120 28.5089C105.434 24.7253 100.927 13.8383 99.3545 7C98.012 13.8049 93.5716 24.575 78.3445 28.5089C92.8858 32.2819 97.5844 43.1773 99.1548 50.0198Z" fill="#4A8AF8"/>
<path d="M25.5459 81.5282C24.815 85.2345 22.3957 91.0998 14.0994 93.2463C22.0214 95.3009 24.5819 101.237 25.4371 104.964C26.17 101.254 28.4849 95.3844 36.7948 93.2463C28.8592 91.1854 26.4022 85.2533 25.5459 81.5282Z" fill="#4A8AF8"/>
<path d="M100.576 83.468L99.1713 77.3564L97.9574 83.5035C97.1994 87.3539 94.7664 92.3338 87.4801 94.2172L82.6707 95.4596L87.478 96.7062C94.4308 98.5123 96.961 103.551 97.857 107.462L99.2612 113.578L100.476 107.424C101.586 101.803 105.081 98.197 110.865 96.7083L115.682 95.468L110.868 94.2193C105.35 92.7869 101.888 89.1663 100.576 83.468ZM99.1012 102.987C97.8027 100.289 95.5474 97.3702 91.6403 95.4763C95.7503 93.57 98.0327 90.6342 99.2988 87.9323C100.636 90.7803 102.896 93.6117 106.698 95.445C103.201 97.0695 100.636 99.6169 99.1012 102.987Z" fill="#4A8AF8"/>
<path d="M18.4014 43.8288L19.8055 49.9426L21.0194 43.7913C22.4727 36.4268 27.0511 31.7078 34.6281 29.7555L39.4459 28.5131L34.6301 27.2645C25.626 24.9259 22.3294 18.3214 21.1511 13.1932L19.7449 7.07733L18.5321 13.2287C17.5378 18.2713 14.351 24.7964 4.80841 27.2624L0 28.5068L4.80736 29.7534C13.914 32.115 17.2262 38.709 18.4014 43.8288ZM19.8798 17.9121C21.5882 21.9379 24.6871 26.0409 30.2734 28.4943C25.2224 30.6325 21.6185 34.226 19.6382 39.0953C17.9957 35.3326 14.9198 31.0584 9.15782 28.5235C15.2083 25.9553 18.3 21.6748 19.8798 17.9121Z" fill="#4A8AF8"/>
</svg>
