<svg width="18" height="22" viewBox="0 0 18 22" fill="none" xmlns="http://www.w3.org/2000/svg">
<path d="M14.1282 8.87589C14.0576 8.11775 13.2254 7.96207 13.2052 7.19658C13.2049 7.18451 13.2052 7.17265 13.2053 7.16071H4.6359C4.63603 7.17265 4.63633 7.18455 4.63603 7.19658C4.61579 7.96203 3.78357 8.11771 3.71302 8.87589C3.67061 9.33153 3.93439 9.70063 4.17072 9.97649C4.40705 10.2524 4.66968 10.6253 4.62374 11.0801C4.57209 11.5916 4.16978 11.8147 4.00744 12.2663C3.83956 12.7335 3.97637 13.3514 4.22873 13.7144C4.48104 14.0775 4.82088 14.2458 5.14886 14.4038H8.82639H9.0148H12.6923C13.0203 14.2458 13.3601 14.0775 13.6125 13.7144C13.8648 13.3514 14.0016 12.7335 13.8337 12.2663C13.6715 11.8147 13.2691 11.5916 13.2174 11.0801C13.1715 10.6253 13.4341 10.2524 13.6705 9.97649C13.9068 9.70063 14.1706 9.33153 14.1282 8.87589Z" fill="#56415E"/>
<path d="M13.6125 13.7144C13.8648 13.3514 14.0016 12.7335 13.8338 12.2664C13.6715 11.8147 13.2691 11.5916 13.2175 11.0802C13.1992 10.8995 13.2302 10.732 13.2883 10.5782C11.9073 10.7668 12.0221 9.71663 12.0221 9.71663C12.0221 9.71663 11.2323 8.61083 10.4014 7.16077H4.6359C4.63603 7.17271 4.63633 7.18461 4.63603 7.19665C4.61579 7.96209 3.78357 8.11777 3.71302 8.87595C3.67061 9.33159 3.93439 9.70069 4.17072 9.97655C4.40705 10.2525 4.66963 10.6254 4.6237 11.0802C4.57205 11.5917 4.16973 11.8148 4.0074 12.2664C3.83952 12.7335 3.97638 13.3514 4.22869 13.7145C4.481 14.0775 4.82084 14.2459 5.14882 14.4039H8.82634H9.01476H12.6923C13.0204 14.2458 13.3602 14.0775 13.6125 13.7144Z" fill="#45304C"/>
<path d="M6.34616 13.3041C6.43132 14.2565 6.95214 15.184 7.89428 16.0609C8.00879 16.1675 8.0341 16.31 7.99702 16.4335H9.9013C9.86418 16.3101 9.88944 16.1676 10.004 16.0609C10.935 15.1944 11.4548 14.278 11.5489 13.337C11.5599 13.2281 11.6085 13.1356 11.6785 13.0677C11.1282 12.7391 10.7353 12.3418 10.7353 11.8767C10.7353 11.6245 10.7353 11.7001 10.7353 11.5367C10.2955 11.9299 9.5414 12.4308 8.92033 12.4458C8.29926 12.4308 7.54516 11.9299 7.10541 11.5367V11.8767C7.10541 12.3268 6.73726 12.7134 6.21484 13.0356C6.28664 13.1023 6.33632 13.1943 6.34616 13.3041Z" fill="#CC8C60"/>
<path d="M7.10541 11.5367V11.8767C7.10541 12.3268 6.73726 12.7134 6.21484 13.0356C6.28656 13.1023 6.33627 13.1943 6.34607 13.3041C6.4113 14.0338 6.73262 14.7488 7.30286 15.4377C7.32095 15.4242 7.33869 15.4108 7.35554 15.3978C8.54598 14.4761 8.85089 13.1665 8.9257 12.4455C8.92394 12.4456 8.92213 12.4457 8.92037 12.4458C8.29926 12.4308 7.54516 11.9299 7.10541 11.5367Z" fill="#BA7D54"/>
<path d="M7.53762 15.838L3.87093 13.9613C3.21883 14.1385 2.7286 14.228 2.7286 14.228C2.19527 14.3304 1.02472 14.7029 0.357801 16.0367C0.213898 16.3245 0.0958633 16.6721 0 17.0639C0.742113 18.2454 1.71256 19.2688 2.84922 20.0729L7.53762 20.0773V15.838Z" fill="#6FAF46"/>
<path d="M17.4838 16.0367C16.8168 14.7028 15.6463 14.3304 15.113 14.2279C15.113 14.2279 14.6769 14.1483 14.0802 13.9907L10.3818 15.8424V20.08L14.9763 20.0843C16.1198 19.2785 17.0959 18.2509 17.8416 17.0638C17.7457 16.672 17.6277 16.3245 17.4838 16.0367Z" fill="#88CE65"/>
<path d="M12.3481 14.8578L10.1464 15.9603V16.346H7.69517V15.9185L6.10537 15.1049L6.05784 19.2123C6.05784 19.2123 5.12134 20.2485 5.8965 21.5588C6.85436 21.8456 7.86949 22 8.92077 22C11.1752 22 13.2638 21.291 14.9767 20.0843C14.9767 19.3892 14.9767 18.6587 14.9767 17.9806C14.9767 16.1375 13.12 15.1774 12.3481 14.8578Z" fill="#6FAF46"/>
<path d="M6.14395 19.2123L6.19096 15.1486L5.5585 14.8249C4.84578 15.1073 2.84863 16.069 2.84863 17.9806V20.0729C3.79571 20.7428 4.85845 21.2599 6.00073 21.5892C5.19288 20.2645 6.14395 19.2123 6.14395 19.2123Z" fill="#5EA033"/>
<path d="M10.3854 16.7489C11.1655 16.5362 12.5988 16.0584 13.6769 15.1997C13.8037 15.0987 13.9164 14.9869 14.0151 14.8668C14.4089 14.387 14.1904 13.659 13.598 13.4736C13.1328 13.328 12.6374 13.1468 12.195 12.9306C11.883 12.7781 11.5184 12.9849 11.4838 13.3305C11.4083 14.0849 11.0288 15.0176 9.95951 16.0128C9.83524 16.1285 9.78626 16.31 9.84645 16.4792C9.92371 16.6961 10.1631 16.8095 10.3854 16.7489Z" fill="#B4D667"/>
<path d="M7.93941 16.0128C7.29444 15.4125 6.90046 14.8349 6.67273 14.3055C6.39984 14.2336 4.93615 13.9198 4.48665 15.3119C4.47896 15.3357 4.47101 15.3587 4.46289 15.3809C5.50548 16.1263 6.79029 16.5517 7.51363 16.7489C7.73586 16.8095 7.97529 16.6961 8.05254 16.4791C8.11266 16.3101 8.06367 16.1285 7.93941 16.0128Z" fill="#B4D667"/>
<path d="M6.14395 19.2124C5.93856 19.2124 5.77051 19.0443 5.77051 18.8389V15.7713C5.77051 15.5659 5.93856 15.3978 6.14395 15.3978C6.34934 15.3978 6.51739 15.5659 6.51739 15.7713V18.8389C6.51739 19.0443 6.34934 19.2124 6.14395 19.2124Z" fill="#DEEEFF"/>
<path d="M11.6977 19.2124C11.4923 19.2124 11.3242 19.0443 11.3242 18.8389V15.7713C11.3242 15.5659 11.4923 15.3978 11.6977 15.3978C11.903 15.3978 12.0711 15.5659 12.0711 15.7713V18.8389C12.0711 19.0443 11.903 19.2124 11.6977 19.2124Z" fill="#DEEEFF"/>
<path d="M6.91864 0.796727C6.99422 0.781516 7.06207 0.741512 7.1187 0.689219C7.33754 0.486922 7.98985 0 9.19744 0C10.5547 0 13.9121 1.03722 13.437 6.48222H4.42869C4.34885 5.52776 4.32058 4.39592 4.65406 3.26601C5.15408 1.5718 6.11001 0.959406 6.91864 0.796727Z" fill="#56415E"/>
<path d="M4.42869 6.48222H10.0243C9.51215 5.52948 9.02768 4.48873 8.74941 3.5411C7.9544 0.833852 11.0029 0.469563 11.0029 0.469563C10.3229 0.115285 9.6493 0 9.19745 0C7.98985 0 7.33754 0.486922 7.11866 0.689176C7.06203 0.741512 6.99418 0.781473 6.9186 0.796684C6.11001 0.959363 5.15404 1.57175 4.65402 3.26601C4.32058 4.39592 4.34885 5.52776 4.42869 6.48222Z" fill="#45304C"/>
<path d="M5.39897 8.05777C5.39897 8.05777 5.18069 6.67628 5.4321 5.85356C5.20398 5.70149 4.76325 5.62724 4.56504 5.82103C4.1592 6.21776 4.45654 6.81692 4.59885 7.19539C4.64255 7.31157 4.67074 7.42909 4.68346 7.54687C4.71113 7.80271 4.84988 8.17718 5.42506 8.16837C5.41638 8.1315 5.40744 8.09524 5.39897 8.05777Z" fill="#BA7D54"/>
<path d="M13.2758 5.82103C13.0775 5.62724 12.6368 5.70149 12.4087 5.85356C12.6601 6.67628 12.4418 8.05777 12.4418 8.05777C12.4333 8.09524 12.4244 8.1315 12.4157 8.16837C12.9909 8.17722 13.1297 7.80271 13.1573 7.54687C13.1701 7.42909 13.1982 7.31157 13.2419 7.19539C13.3843 6.81692 13.6816 6.2178 13.2758 5.82103Z" fill="#CC8C60"/>
<path d="M12.6753 6.14554C12.6466 5.85155 12.3944 5.62927 12.0991 5.63464C11.1856 5.65118 9.89873 5.21857 9.3016 4.23833C9.10523 3.91593 8.90293 3.67853 8.70773 3.50275C8.19369 4.04097 8.0311 4.77973 8.0311 4.77973C8.02757 4.8979 7.97996 5.01185 7.8933 5.10948C7.41583 5.64753 7.52037 7.21946 7.63179 7.86665C7.87847 8.95557 8.23584 9.90505 8.6938 10.6888C9.03743 11.2769 9.51227 11.7676 10.0865 12.1355C10.6976 11.7668 11.2009 11.2606 11.5594 10.6471C12.0107 9.8748 12.3629 8.93885 12.6066 7.86343C12.6698 7.46172 12.7352 6.75948 12.6753 6.14554Z" fill="#DBA783"/>
<path d="M8.71424 10.647C8.26285 9.87449 7.9106 8.93858 7.66744 7.86527C7.55761 7.22735 7.45457 5.67786 7.92521 5.14754C8.01063 5.05133 8.05759 4.93897 8.06103 4.82252C8.06103 4.82252 8.22564 4.07328 8.74956 3.54111C8.08114 2.91127 7.48521 3.02445 7.48521 3.02445C6.06281 3.11305 5.68761 4.82252 5.68761 4.82252C5.68413 4.93897 5.63721 5.05133 5.55178 5.14754C5.08115 5.6779 5.18419 7.22735 5.29401 7.86527C5.53717 8.93858 5.88943 9.87449 6.34082 10.647C6.79908 11.4313 7.49307 12.0412 8.34772 12.411C8.73053 12.5765 9.16945 12.5765 9.55222 12.411C9.75666 12.3225 9.95161 12.2199 10.1367 12.1049C9.54822 11.739 9.06285 11.2436 8.71424 10.647Z" fill="#CC8C60"/>
<path d="M6.41186 13.2983C6.38088 12.9516 6.00589 12.7513 5.6945 12.9067C5.25308 13.1271 4.75468 13.3119 4.28452 13.4607C3.69537 13.6471 3.48332 14.3703 3.87116 14.8514C3.97274 14.9774 4.08974 15.0944 4.22196 15.1997C4.30798 15.2683 4.3965 15.3341 4.48651 15.3978C4.98298 13.8603 6.71668 14.4038 6.71668 14.4038C6.532 14.0061 6.44189 13.6341 6.41186 13.2983Z" fill="#88CE65"/>
</svg>
