<svg width="24" height="24" viewBox="0 0 24 24" fill="none" xmlns="http://www.w3.org/2000/svg">
<g clip-path="url(#clip0_1094_10170)">
<path d="M12 0C5.3832 0 0 5.3832 0 12C0 18.6168 5.3832 24 12 24C18.6168 24 24 18.6168 24 12C24 5.3832 18.6168 0 12 0ZM12 22.6667C6.1184 22.6667 1.33333 17.8816 1.33333 12C1.33333 6.1184 6.1184 1.33333 12 1.33333C17.8816 1.33333 22.6667 6.1184 22.6667 12C22.6667 17.8816 17.8816 22.6667 12 22.6667Z" fill="#C4C4C4"/>
<path d="M15.9999 11.3335H12.6666V8.00016C12.6666 7.6319 12.3682 7.3335 11.9999 7.3335C11.6317 7.3335 11.3333 7.6319 11.3333 8.00016V11.3335H7.99992C7.63165 11.3335 7.33325 11.6319 7.33325 12.0002C7.33325 12.3684 7.63165 12.6668 7.99992 12.6668H11.3333V16.0002C11.3333 16.3684 11.6317 16.6668 11.9999 16.6668C12.3682 16.6668 12.6666 16.3684 12.6666 16.0002V12.6668H15.9999C16.3682 12.6668 16.6666 12.3684 16.6666 12.0002C16.6666 11.6319 16.3682 11.3335 15.9999 11.3335Z" fill="#C4C4C4"/>
</g>
<defs>
<clipPath id="clip0_1094_10170">
<rect width="24" height="24" fill="white"/>
</clipPath>
</defs>
</svg>
